<svg version="1.1" viewBox="0.0 0.0 461.257217847769 379.49081364829397" fill="none" stroke="none" stroke-linecap="square" stroke-miterlimit="10" xmlns:xlink="http://www.w3.org/1999/xlink" xmlns="http://www.w3.org/2000/svg"><clipPath id="p.0"><path d="m0 0l461.25723 0l0 379.4908l-461.25723 0l0 -379.4908z" clip-rule="nonzero"/></clipPath><g clip-path="url(#p.0)"><path fill="#000000" fill-opacity="0.0" d="m0 0l461.25723 0l0 379.4908l-461.25723 0z" fill-rule="evenodd"/><path fill="#ffffff" d="m17.868767 89.13403l0 0c0 -4.870636 3.948433 -8.819069 8.819073 -8.819069l35.275238 0l0 0c2.3389626 0 4.5821342 0.9291458 6.236027 2.583046c1.6539001 1.6538925 2.583046 3.8970642 2.583046 6.236023l0 35.275238c0 4.870636 -3.948433 8.819077 -8.819073 8.819077l-35.275238 0c-4.87064 0 -8.819073 -3.9484406 -8.819073 -8.819077z" fill-rule="evenodd"/><path stroke="#000000" stroke-width="1.0" stroke-linejoin="round" stroke-linecap="butt" d="m17.868767 89.13403l0 0c0 -4.870636 3.948433 -8.819069 8.819073 -8.819069l35.275238 0l0 0c2.3389626 0 4.5821342 0.9291458 6.236027 2.583046c1.6539001 1.6538925 2.583046 3.8970642 2.583046 6.236023l0 35.275238c0 4.870636 -3.948433 8.819077 -8.819073 8.819077l-35.275238 0c-4.87064 0 -8.819073 -3.9484406 -8.819073 -8.819077z" fill-rule="evenodd"/><path fill="#ffffff" d="m85.90026 89.13403l0 0c0 -4.870636 3.948433 -8.819069 8.819077 -8.819069l35.27523 0l0 0c2.338974 0 4.582138 0.9291458 6.236038 2.583046c1.6538849 1.6538925 2.5830383 3.8970642 2.5830383 6.236023l0 35.275238c0 4.870636 -3.9484253 8.819077 -8.819077 8.819077l-35.27523 0c-4.8706436 0 -8.819077 -3.9484406 -8.819077 -8.819077z" fill-rule="evenodd"/><path stroke="#000000" stroke-width="1.0" stroke-linejoin="round" stroke-linecap="butt" d="m85.90026 89.13403l0 0c0 -4.870636 3.948433 -8.819069 8.819077 -8.819069l35.27523 0l0 0c2.338974 0 4.582138 0.9291458 6.236038 2.583046c1.6538849 1.6538925 2.5830383 3.8970642 2.5830383 6.236023l0 35.275238c0 4.870636 -3.9484253 8.819077 -8.819077 8.819077l-35.27523 0c-4.8706436 0 -8.819077 -3.9484406 -8.819077 -8.819077z" fill-rule="evenodd"/><path fill="#ffffff" d="m153.93176 89.13403l0 0c0 -4.870636 3.9484253 -8.819069 8.819077 -8.819069l35.275238 0l0 0c2.3389587 0 4.582123 0.9291458 6.236023 2.583046c1.6539001 1.6538925 2.5830383 3.8970642 2.5830383 6.236023l0 35.275238c0 4.870636 -3.9484253 8.819077 -8.819061 8.819077l-35.275238 0c-4.8706512 0 -8.819077 -3.9484406 -8.819077 -8.819077z" fill-rule="evenodd"/><path stroke="#000000" stroke-width="1.0" stroke-linejoin="round" stroke-linecap="butt" d="m153.93176 89.13403l0 0c0 -4.870636 3.9484253 -8.819069 8.819077 -8.819069l35.275238 0l0 0c2.3389587 0 4.582123 0.9291458 6.236023 2.583046c1.6539001 1.6538925 2.5830383 3.8970642 2.5830383 6.236023l0 35.275238c0 4.870636 -3.9484253 8.819077 -8.819061 8.819077l-35.275238 0c-4.8706512 0 -8.819077 -3.9484406 -8.819077 -8.819077z" fill-rule="evenodd"/><path fill="#ffffff" d="m221.96326 89.13403l0 0c0 -4.870636 3.9484253 -8.819069 8.819077 -8.819069l35.275223 0l0 0c2.3389893 0 4.5821533 0.9291458 6.236023 2.583046c1.6539001 1.6538925 2.5830688 3.8970642 2.5830688 6.236023l0 110.86578c0 4.8706512 -3.9484558 8.819077 -8.819092 8.819077l-35.275223 0c-4.8706512 0 -8.819077 -3.9484253 -8.819077 -8.819077z" fill-rule="evenodd"/><path stroke="#000000" stroke-width="1.0" stroke-linejoin="round" stroke-linecap="butt" d="m221.96326 89.13403l0 0c0 -4.870636 3.9484253 -8.819069 8.819077 -8.819069l35.275223 0l0 0c2.3389893 0 4.5821533 0.9291458 6.236023 2.583046c1.6539001 1.6538925 2.5830688 3.8970642 2.5830688 6.236023l0 110.86578c0 4.8706512 -3.9484558 8.819077 -8.819092 8.819077l-35.275223 0c-4.8706512 0 -8.819077 -3.9484253 -8.819077 -8.819077z" fill-rule="evenodd"/><path fill="#6eff6e" d="m24.041994 86.48819l40.566933 0l0 40.566925l-40.566933 0z" fill-rule="evenodd"/><path stroke="#000000" stroke-width="1.0" stroke-linejoin="round" stroke-linecap="butt" d="m24.041994 86.48819l40.566933 0l0 40.566925l-40.566933 0z" fill-rule="evenodd"/><path fill="#6eff6e" d="m92.073494 86.48819l40.566933 0l0 40.566925l-40.566933 0z" fill-rule="evenodd"/><path stroke="#000000" stroke-width="1.0" stroke-linejoin="round" stroke-linecap="butt" d="m92.073494 86.48819l40.566933 0l0 40.566925l-40.566933 0z" fill-rule="evenodd"/><path fill="#6eff6e" d="m160.10498 86.48819l40.56694 0l0 40.566925l-40.56694 0z" fill-rule="evenodd"/><path stroke="#000000" stroke-width="1.0" stroke-linejoin="round" stroke-linecap="butt" d="m160.10498 86.48819l40.56694 0l0 40.566925l-40.56694 0z" fill-rule="evenodd"/><path fill="#ff0000" d="m228.13649 86.48819l40.56691 0l0 116.157486l-40.56691 0z" fill-rule="evenodd"/><path stroke="#000000" stroke-width="1.0" stroke-linejoin="round" stroke-linecap="butt" d="m228.13649 86.48819l40.56691 0l0 116.157486l-40.56691 0z" fill-rule="evenodd"/><path fill="#ffffff" d="m17.868767 164.72458l0 0c0 -4.870636 3.948433 -8.819061 8.819073 -8.819061l35.275238 0l0 0c2.3389626 0 4.5821342 0.9291382 6.236027 2.5830383c1.6539001 1.6539001 2.583046 3.8970642 2.583046 6.236023l0 35.275238c0 4.8706512 -3.948433 8.819077 -8.819073 8.819077l-35.275238 0c-4.87064 0 -8.819073 -3.9484253 -8.819073 -8.819077z" fill-rule="evenodd"/><path stroke="#000000" stroke-width="1.0" stroke-linejoin="round" stroke-linecap="butt" d="m17.868767 164.72458l0 0c0 -4.870636 3.948433 -8.819061 8.819073 -8.819061l35.275238 0l0 0c2.3389626 0 4.5821342 0.9291382 6.236027 2.5830383c1.6539001 1.6539001 2.583046 3.8970642 2.583046 6.236023l0 35.275238c0 4.8706512 -3.948433 8.819077 -8.819073 8.819077l-35.275238 0c-4.87064 0 -8.819073 -3.9484253 -8.819073 -8.819077z" fill-rule="evenodd"/><path fill="#ffffff" d="m85.90026 164.72458l0 0c0 -4.870636 3.948433 -8.819061 8.819077 -8.819061l35.27523 0l0 0c2.338974 0 4.582138 0.9291382 6.236038 2.5830383c1.6538849 1.6539001 2.5830383 3.8970642 2.5830383 6.236023l0 35.275238c0 4.8706512 -3.9484253 8.819077 -8.819077 8.819077l-35.27523 0c-4.8706436 0 -8.819077 -3.9484253 -8.819077 -8.819077z" fill-rule="evenodd"/><path stroke="#000000" stroke-width="1.0" stroke-linejoin="round" stroke-linecap="butt" d="m85.90026 164.72458l0 0c0 -4.870636 3.948433 -8.819061 8.819077 -8.819061l35.27523 0l0 0c2.338974 0 4.582138 0.9291382 6.236038 2.5830383c1.6538849 1.6539001 2.5830383 3.8970642 2.5830383 6.236023l0 35.275238c0 4.8706512 -3.9484253 8.819077 -8.819077 8.819077l-35.27523 0c-4.8706436 0 -8.819077 -3.9484253 -8.819077 -8.819077z" fill-rule="evenodd"/><path fill="#ffffff" d="m153.93176 164.72458l0 0c0 -4.870636 3.9484253 -8.819061 8.819077 -8.819061l35.275238 0l0 0c2.3389587 0 4.582123 0.9291382 6.236023 2.5830383c1.6539001 1.6539001 2.5830383 3.8970642 2.5830383 6.236023l0 35.275238c0 4.8706512 -3.9484253 8.819077 -8.819061 8.819077l-35.275238 0c-4.8706512 0 -8.819077 -3.9484253 -8.819077 -8.819077z" fill-rule="evenodd"/><path stroke="#000000" stroke-width="1.0" stroke-linejoin="round" stroke-linecap="butt" d="m153.93176 164.72458l0 0c0 -4.870636 3.9484253 -8.819061 8.819077 -8.819061l35.275238 0l0 0c2.3389587 0 4.582123 0.9291382 6.236023 2.5830383c1.6539001 1.6539001 2.5830383 3.8970642 2.5830383 6.236023l0 35.275238c0 4.8706512 -3.9484253 8.819077 -8.819061 8.819077l-35.275238 0c-4.8706512 0 -8.819077 -3.9484253 -8.819077 -8.819077z" fill-rule="evenodd"/><path fill="#6eff6e" d="m24.041994 162.07874l40.566933 0l0 40.56694l-40.566933 0z" fill-rule="evenodd"/><path stroke="#000000" stroke-width="1.0" stroke-linejoin="round" stroke-linecap="butt" d="m24.041994 162.07874l40.566933 0l0 40.56694l-40.566933 0z" fill-rule="evenodd"/><path fill="#6eff6e" d="m92.073494 162.07874l40.566933 0l0 40.56694l-40.566933 0z" fill-rule="evenodd"/><path stroke="#000000" stroke-width="1.0" stroke-linejoin="round" stroke-linecap="butt" d="m92.073494 162.07874l40.566933 0l0 40.56694l-40.566933 0z" fill-rule="evenodd"/><path fill="#6eff6e" d="m160.10498 162.07874l40.56694 0l0 40.56694l-40.56694 0z" fill-rule="evenodd"/><path stroke="#000000" stroke-width="1.0" stroke-linejoin="round" stroke-linecap="butt" d="m160.10498 162.07874l40.56694 0l0 40.56694l-40.56694 0z" fill-rule="evenodd"/><path fill="#ffffff" d="m17.868767 240.31514l0 0c0 -4.870636 3.948433 -8.819077 8.819073 -8.819077l35.275238 0l0 0c2.3389626 0 4.5821342 0.92915344 6.236027 2.5830536c1.6539001 1.6538849 2.583046 3.897049 2.583046 6.236023l0 35.275223c0 4.8706665 -3.948433 8.819092 -8.819073 8.819092l-35.275238 0c-4.87064 0 -8.819073 -3.9484253 -8.819073 -8.819092z" fill-rule="evenodd"/><path stroke="#000000" stroke-width="1.0" stroke-linejoin="round" stroke-linecap="butt" d="m17.868767 240.31514l0 0c0 -4.870636 3.948433 -8.819077 8.819073 -8.819077l35.275238 0l0 0c2.3389626 0 4.5821342 0.92915344 6.236027 2.5830536c1.6539001 1.6538849 2.583046 3.897049 2.583046 6.236023l0 35.275223c0 4.8706665 -3.948433 8.819092 -8.819073 8.819092l-35.275238 0c-4.87064 0 -8.819073 -3.9484253 -8.819073 -8.819092z" fill-rule="evenodd"/><path fill="#ffffff" d="m85.90026 240.31514l0 0c0 -4.870636 3.948433 -8.819077 8.819077 -8.819077l35.27523 0l0 0c2.338974 0 4.582138 0.92915344 6.236038 2.5830536c1.6538849 1.6538849 2.5830383 3.897049 2.5830383 6.236023l0 35.275223c0 4.8706665 -3.9484253 8.819092 -8.819077 8.819092l-35.27523 0c-4.8706436 0 -8.819077 -3.9484253 -8.819077 -8.819092z" fill-rule="evenodd"/><path stroke="#000000" stroke-width="1.0" stroke-linejoin="round" stroke-linecap="butt" d="m85.90026 240.31514l0 0c0 -4.870636 3.948433 -8.819077 8.819077 -8.819077l35.27523 0l0 0c2.338974 0 4.582138 0.92915344 6.236038 2.5830536c1.6538849 1.6538849 2.5830383 3.897049 2.5830383 6.236023l0 35.275223c0 4.8706665 -3.9484253 8.819092 -8.819077 8.819092l-35.27523 0c-4.8706436 0 -8.819077 -3.9484253 -8.819077 -8.819092z" fill-rule="evenodd"/><path fill="#ffffff" d="m153.93176 240.31514l0 0c0 -4.870636 3.9484253 -8.819077 8.819077 -8.819077l35.275238 0l0 0c2.3389587 0 4.582123 0.92915344 6.236023 2.5830536c1.6539001 1.6538849 2.5830383 3.897049 2.5830383 6.236023l0 35.275223c0 4.8706665 -3.9484253 8.819092 -8.819061 8.819092l-35.275238 0c-4.8706512 0 -8.819077 -3.9484253 -8.819077 -8.819092z" fill-rule="evenodd"/><path stroke="#000000" stroke-width="1.0" stroke-linejoin="round" stroke-linecap="butt" d="m153.93176 240.31514l0 0c0 -4.870636 3.9484253 -8.819077 8.819077 -8.819077l35.275238 0l0 0c2.3389587 0 4.582123 0.92915344 6.236023 2.5830536c1.6539001 1.6538849 2.5830383 3.897049 2.5830383 6.236023l0 35.275223c0 4.8706665 -3.9484253 8.819092 -8.819061 8.819092l-35.275238 0c-4.8706512 0 -8.819077 -3.9484253 -8.819077 -8.819092z" fill-rule="evenodd"/><path fill="#6eff6e" d="m24.041994 237.6693l40.566933 0l0 40.56691l-40.566933 0z" fill-rule="evenodd"/><path stroke="#000000" stroke-width="1.0" stroke-linejoin="round" stroke-linecap="butt" d="m24.041994 237.6693l40.566933 0l0 40.56691l-40.566933 0z" fill-rule="evenodd"/><path fill="#6eff6e" d="m92.073494 237.6693l40.566933 0l0 40.56691l-40.566933 0z" fill-rule="evenodd"/><path stroke="#000000" stroke-width="1.0" stroke-linejoin="round" stroke-linecap="butt" d="m92.073494 237.6693l40.566933 0l0 40.56691l-40.566933 0z" fill-rule="evenodd"/><path fill="#6eff6e" d="m160.10498 237.6693l40.56694 0l0 40.56691l-40.56694 0z" fill-rule="evenodd"/><path stroke="#000000" stroke-width="1.0" stroke-linejoin="round" stroke-linecap="butt" d="m160.10498 237.6693l40.56694 0l0 40.56691l-40.56694 0z" fill-rule="evenodd"/><path fill="#ffffff" d="m17.868767 315.9057l0 0c0 -4.8706665 3.948433 -8.819092 8.819073 -8.819092l103.30673 0c2.338974 0 4.582138 0.9291687 6.236038 2.5830383c1.6538849 1.6539001 2.5830383 3.8970642 2.5830383 6.2360535l0 35.275238c0 4.870636 -3.9484253 8.819061 -8.819077 8.819061l-103.30673 0c-4.87064 0 -8.819073 -3.9484253 -8.819073 -8.819061z" fill-rule="evenodd"/><path stroke="#000000" stroke-width="1.0" stroke-linejoin="round" stroke-linecap="butt" d="m17.868767 315.9057l0 0c0 -4.8706665 3.948433 -8.819092 8.819073 -8.819092l103.30673 0c2.338974 0 4.582138 0.9291687 6.236038 2.5830383c1.6538849 1.6539001 2.5830383 3.8970642 2.5830383 6.2360535l0 35.275238c0 4.870636 -3.9484253 8.819061 -8.819077 8.819061l-103.30673 0c-4.87064 0 -8.819073 -3.9484253 -8.819073 -8.819061z" fill-rule="evenodd"/><path fill="#ffffff" d="m153.93176 315.9057l0 0c0 -4.8706665 3.9484253 -8.819092 8.819077 -8.819092l35.275238 0l0 0c2.3389587 0 4.582123 0.9291687 6.236023 2.5830383c1.6539001 1.6539001 2.5830383 3.8970642 2.5830383 6.2360535l0 35.275238c0 4.870636 -3.9484253 8.819061 -8.819061 8.819061l-35.275238 0c-4.8706512 0 -8.819077 -3.9484253 -8.819077 -8.819061z" fill-rule="evenodd"/><path stroke="#000000" stroke-width="1.0" stroke-linejoin="round" stroke-linecap="butt" d="m153.93176 315.9057l0 0c0 -4.8706665 3.9484253 -8.819092 8.819077 -8.819092l35.275238 0l0 0c2.3389587 0 4.582123 0.9291687 6.236023 2.5830383c1.6539001 1.6539001 2.5830383 3.8970642 2.5830383 6.2360535l0 35.275238c0 4.870636 -3.9484253 8.819061 -8.819061 8.819061l-35.275238 0c-4.8706512 0 -8.819077 -3.9484253 -8.819077 -8.819061z" fill-rule="evenodd"/><path fill="#6eff6e" d="m24.041994 313.25986l108.598434 0l0 40.566925l-108.598434 0z" fill-rule="evenodd"/><path stroke="#000000" stroke-width="1.0" stroke-linejoin="round" stroke-linecap="butt" d="m24.041994 313.25986l108.598434 0l0 40.566925l-108.598434 0z" fill-rule="evenodd"/><path fill="#6eff6e" d="m160.10498 313.25986l40.56694 0l0 40.566925l-40.56694 0z" fill-rule="evenodd"/><path stroke="#000000" stroke-width="1.0" stroke-linejoin="round" stroke-linecap="butt" d="m160.10498 313.25986l40.56694 0l0 40.566925l-40.56694 0z" fill-rule="evenodd"/><path fill="#ffffff" d="m221.96326 240.31514l0 0c0 -4.870636 3.9484253 -8.819077 8.819077 -8.819077l35.275223 0l0 0c2.3389893 0 4.5821533 0.92915344 6.236023 2.5830536c1.6539001 1.6538849 2.5830688 3.897049 2.5830688 6.236023l0 110.8658c0 4.870636 -3.9484558 8.819061 -8.819092 8.819061l-35.275223 0c-4.8706512 0 -8.819077 -3.9484253 -8.819077 -8.819061z" fill-rule="evenodd"/><path stroke="#000000" stroke-width="1.0" stroke-linejoin="round" stroke-linecap="butt" d="m221.96326 240.31514l0 0c0 -4.870636 3.9484253 -8.819077 8.819077 -8.819077l35.275223 0l0 0c2.3389893 0 4.5821533 0.92915344 6.236023 2.5830536c1.6539001 1.6538849 2.5830688 3.897049 2.5830688 6.236023l0 110.8658c0 4.870636 -3.9484558 8.819061 -8.819092 8.819061l-35.275223 0c-4.8706512 0 -8.819077 -3.9484253 -8.819077 -8.819061z" fill-rule="evenodd"/><path fill="#ff0000" d="m228.13649 237.6693l40.56691 0l0 116.157486l-40.56691 0z" fill-rule="evenodd"/><path stroke="#000000" stroke-width="1.0" stroke-linejoin="round" stroke-linecap="butt" d="m228.13649 237.6693l40.56691 0l0 116.157486l-40.56691 0z" fill-rule="evenodd"/><path fill="#434343" d="m17.868767 13.543484l0 0c0 -4.8706408 3.948433 -8.819075 8.819073 -8.819075l35.275238 0l0 0c2.3389626 0 4.5821342 0.9291496 6.236027 2.583047c1.6539001 1.6538968 2.583046 3.8970628 2.583046 6.2360272l0 35.275238c0 4.87064 -3.948433 8.819073 -8.819073 8.819073l-35.275238 0c-4.87064 0 -8.819073 -3.948433 -8.819073 -8.819073z" fill-rule="evenodd"/><path stroke="#000000" stroke-width="1.0" stroke-linejoin="round" stroke-linecap="butt" d="m17.868767 13.543484l0 0c0 -4.8706408 3.948433 -8.819075 8.819073 -8.819075l35.275238 0l0 0c2.3389626 0 4.5821342 0.9291496 6.236027 2.583047c1.6539001 1.6538968 2.583046 3.8970628 2.583046 6.2360272l0 35.275238c0 4.87064 -3.948433 8.819073 -8.819073 8.819073l-35.275238 0c-4.87064 0 -8.819073 -3.948433 -8.819073 -8.819073z" fill-rule="evenodd"/><path fill="#ffffff" d="m85.90026 13.543484l0 0c0 -4.8706408 3.948433 -8.819075 8.819077 -8.819075l35.27523 0l0 0c2.338974 0 4.582138 0.9291496 6.236038 2.583047c1.6538849 1.6538968 2.5830383 3.8970628 2.5830383 6.2360272l0 35.275238c0 4.87064 -3.9484253 8.819073 -8.819077 8.819073l-35.27523 0c-4.8706436 0 -8.819077 -3.948433 -8.819077 -8.819073z" fill-rule="evenodd"/><path stroke="#000000" stroke-width="1.0" stroke-linejoin="round" stroke-linecap="butt" d="m85.90026 13.543484l0 0c0 -4.8706408 3.948433 -8.819075 8.819077 -8.819075l35.27523 0l0 0c2.338974 0 4.582138 0.9291496 6.236038 2.583047c1.6538849 1.6538968 2.5830383 3.8970628 2.5830383 6.2360272l0 35.275238c0 4.87064 -3.9484253 8.819073 -8.819077 8.819073l-35.27523 0c-4.8706436 0 -8.819077 -3.948433 -8.819077 -8.819073z" fill-rule="evenodd"/><path fill="#ffffff" d="m153.93176 13.543484l0 0c0 -4.8706408 3.9484253 -8.819075 8.819077 -8.819075l35.275238 0l0 0c2.3389587 0 4.582123 0.9291496 6.236023 2.583047c1.6539001 1.6538968 2.5830383 3.8970628 2.5830383 6.2360272l0 35.275238c0 4.87064 -3.9484253 8.819073 -8.819061 8.819073l-35.275238 0c-4.8706512 0 -8.819077 -3.948433 -8.819077 -8.819073z" fill-rule="evenodd"/><path stroke="#000000" stroke-width="1.0" stroke-linejoin="round" stroke-linecap="butt" d="m153.93176 13.543484l0 0c0 -4.8706408 3.9484253 -8.819075 8.819077 -8.819075l35.275238 0l0 0c2.3389587 0 4.582123 0.9291496 6.236023 2.583047c1.6539001 1.6538968 2.5830383 3.8970628 2.5830383 6.2360272l0 35.275238c0 4.87064 -3.9484253 8.819073 -8.819061 8.819073l-35.275238 0c-4.8706512 0 -8.819077 -3.948433 -8.819077 -8.819073z" fill-rule="evenodd"/><path fill="#000000" d="m24.041994 10.897637l40.566933 0l0 40.56693l-40.566933 0z" fill-rule="evenodd"/><path stroke="#000000" stroke-width="1.0" stroke-linejoin="round" stroke-linecap="butt" d="m24.041994 10.897637l40.566933 0l0 40.56693l-40.566933 0z" fill-rule="evenodd"/><path fill="#ff0000" d="m92.073494 10.897637l40.566933 0l0 40.56693l-40.566933 0z" fill-rule="evenodd"/><path stroke="#000000" stroke-width="1.0" stroke-linejoin="round" stroke-linecap="butt" d="m92.073494 10.897637l40.566933 0l0 40.56693l-40.566933 0z" fill-rule="evenodd"/><path fill="#ff0000" d="m160.10498 10.897637l40.56694 0l0 40.56693l-40.56694 0z" fill-rule="evenodd"/><path stroke="#000000" stroke-width="1.0" stroke-linejoin="round" stroke-linecap="butt" d="m160.10498 10.897637l40.56694 0l0 40.56693l-40.56694 0z" fill-rule="evenodd"/><path fill="#ffffff" d="m221.96326 13.543484l0 0c0 -4.8706408 3.9484253 -8.819075 8.819077 -8.819075l35.275223 0l0 0c2.3389893 0 4.5821533 0.9291496 6.236023 2.583047c1.6539001 1.6538968 2.5830688 3.8970628 2.5830688 6.2360272l0 35.275238c0 4.87064 -3.9484558 8.819073 -8.819092 8.819073l-35.275223 0c-4.8706512 0 -8.819077 -3.948433 -8.819077 -8.819073z" fill-rule="evenodd"/><path stroke="#000000" stroke-width="1.0" stroke-linejoin="round" stroke-linecap="butt" d="m221.96326 13.543484l0 0c0 -4.8706408 3.9484253 -8.819075 8.819077 -8.819075l35.275223 0l0 0c2.3389893 0 4.5821533 0.9291496 6.236023 2.583047c1.6539001 1.6538968 2.5830688 3.8970628 2.5830688 6.2360272l0 35.275238c0 4.87064 -3.9484558 8.819073 -8.819092 8.819073l-35.275223 0c-4.8706512 0 -8.819077 -3.948433 -8.819077 -8.819073z" fill-rule="evenodd"/><path fill="#ff0000" d="m228.13649 10.897637l40.56691 0l0 40.56693l-40.56691 0z" fill-rule="evenodd"/><path stroke="#000000" stroke-width="1.0" stroke-linejoin="round" stroke-linecap="butt" d="m228.13649 10.897637l40.56691 0l0 40.56693l-40.56691 0z" fill-rule="evenodd"/><path fill="#000000" fill-opacity="0.0" d="m17.868767 16.64567l52.913383 0l0 29.070864l-52.913383 0z" fill-rule="evenodd"/><path fill="#ffffff" d="m29.280302 33.845104l0 -5.296875l0.71875 0l2.781248 4.15625l0 -4.15625l0.671875 0l0 5.296875l-0.71875 0l-2.781248 -4.15625l0 4.15625l-0.671875 0zm7.7747784 0l0 -0.5625q-0.453125 0.65625 -1.21875 0.65625q-0.34375 0 -0.640625 -0.125q-0.28125 -0.140625 -0.4375 -0.328125q-0.140625 -0.203125 -0.1875 -0.5q-0.046875 -0.1875 -0.046875 -0.59375l0 -2.375l0.65625 0l0 2.125q0 0.5 0.03125 0.6875q0.0625 0.25 0.265625 0.40625q0.203125 0.140625 0.484375 0.140625q0.296875 0 0.546875 -0.140625q0.265625 -0.15625 0.375 -0.40625q0.109375 -0.265625 0.109375 -0.765625l0 -2.046875l0.640625 0l0 3.828125l-0.578125 0zm1.594696 0l0 -3.828125l0.578125 0l0 0.53125q0.1875 -0.28125 0.484375 -0.453125q0.296875 -0.171875 0.6875 -0.171875q0.421875 0 0.6875 0.1875q0.28125 0.171875 0.390625 0.484375q0.453125 -0.671875 1.1875 -0.671875q0.5625 0 0.875 0.328125q0.3125 0.3125 0.3125 0.96875l0 2.625l-0.65625 0l0 -2.421875q0 -0.375 -0.0625 -0.546875q-0.0625 -0.171875 -0.234375 -0.28125q-0.15625 -0.109375 -0.375 -0.109375q-0.40625 0 -0.6875 0.28125q-0.265625 0.265625 -0.265625 0.84375l0 2.234375l-0.640625 0l0 -2.484375q0 -0.4375 -0.15625 -0.65625q-0.15625 -0.21875 -0.53125 -0.21875q-0.265625 0 -0.5 0.15625q-0.234375 0.140625 -0.34375 0.421875q-0.09375 0.265625 -0.09375 0.796875l0 1.984375l-0.65625 0zm6.2189484 0l0 -5.296875l0.6875 0l0 4.671875l2.609375 0l0 0.625l-3.296875 0zm3.813446 -1.921875q0 -1.0625 0.59375 -1.578125q0.484375 -0.421875 1.2031288 -0.421875q0.78125 0 1.28125 0.515625q0.515625 0.515625 0.515625 1.4375q0 0.734375 -0.234375 1.171875q-0.21875 0.421875 -0.640625 0.65625q-0.421875 0.234375 -0.921875 0.234375q-0.8125038 0 -1.3125038 -0.515625q-0.484375 -0.53125 -0.484375 -1.5zm0.65625 0q0 0.734375 0.328125 1.109375q0.3281288 0.359375 0.8125038 0.359375q0.484375 0 0.796875 -0.359375q0.328125 -0.375 0.328125 -1.125q0 -0.71875 -0.328125 -1.078125q-0.328125 -0.359375 -0.796875 -0.359375q-0.484375 0 -0.8125038 0.359375q-0.328125 0.359375 -0.328125 1.09375zm6.18845 0.515625l0.640625 0.078125q-0.109375 0.671875 -0.546875 1.046875q-0.421875 0.375 -1.046875 0.375q-0.78125 0 -1.265625 -0.515625q-0.484375 -0.515625 -0.484375 -1.484375q0 -0.609375 0.203125 -1.078125q0.21875 -0.46875 0.640625 -0.703125q0.421875 -0.234375 0.90625 -0.234375q0.625 0 1.015625 0.328125q0.40625 0.3125 0.515625 0.890625l-0.625 0.09375q-0.09375 -0.390625 -0.328125 -0.578125q-0.21875 -0.203125 -0.546875 -0.203125q-0.5 0 -0.8125 0.359375q-0.296875 0.34375 -0.296875 1.109375q0 0.78125 0.296875 1.125q0.296875 0.34375 0.78125 0.34375q0.375 0 0.625 -0.234375q0.265625 -0.234375 0.328125 -0.71875zm1.1953125 1.40625l0 -5.296875l0.65625 0l0 3.015625l1.53125 -1.546875l0.84375 0l-1.46875 1.421875l1.625 2.40625l-0.8125 0l-1.265625 -1.953125l-0.453125 0.4375l0 1.515625l-0.65625 0z" fill-rule="nonzero"/><path fill="#000000" fill-opacity="0.0" d="m279.42258 49.30971l171.1496 0l0 245.6378l-171.1496 0z" fill-rule="evenodd"/><path fill="#ffffff" d="m344.2687 58.30971l41.457336 0l0 22.399998l-41.457336 0l0 -22.399998z" fill-rule="nonzero"/><path fill="#000000" fill-opacity="0.0" d="m344.2687 59.340702l41.457336 0l0 21.452862l-41.457336 0l0 -21.452862z" fill-rule="nonzero"/><path fill="#ff0000" d="m345.62808 76.229706l0 -13.359371l5.6875 0q2.140625 0 3.109375 0.359375q0.96875 0.359375 1.546875 1.2812462q0.578125 0.921875 0.578125 2.109375q0 1.5 -0.890625 2.484375q-0.875 0.96875 -2.625 1.234375q0.875 0.5 1.4375 1.125q0.578125 0.609375 1.53125 2.15625l1.640625 2.609375l-3.234375 0l-1.9375 -2.90625q-1.046875 -1.5625 -1.4375 -1.96875q-0.375 -0.40625 -0.8125 -0.546875q-0.421875 -0.15625 -1.34375 -0.15625l-0.546875 0l0 5.578125l-2.703125 0zm2.703125 -7.703125l2.0 0q1.9375 0 2.421875 -0.15625q0.484375 -0.171875 0.75 -0.578125q0.28125 -0.40625 0.28125 -1.0q0 -0.671875 -0.359375 -1.078125q-0.359375 -0.421875 -1.015625 -0.53125q-0.328125 -0.046875 -1.96875 -0.046875l-2.109375 0l0 3.390625zm16.347961 4.625l2.546875 0.421875q-0.484375 1.40625 -1.546875 2.140625q-1.0625 0.734375 -2.65625 0.734375q-2.515625 0 -3.734375 -1.65625q-0.953125 -1.3125 -0.953125 -3.328125q0 -2.40625 1.25 -3.765625q1.265625 -1.359375 3.1875 -1.359375q2.15625 0 3.40625 1.421875q1.25 1.421875 1.1875 4.375l-6.40625 0q0.03125 1.140625 0.609375 1.78125q0.59375 0.625 1.484375 0.625q0.59375 0 1.0 -0.328125q0.421875 -0.328125 0.625 -1.0625zm0.15625 -2.59375q-0.03125 -1.109375 -0.578125 -1.6875q-0.546875 -0.578125 -1.328125 -0.578125q-0.84375 0 -1.390625 0.609375q-0.546875 0.609375 -0.53125 1.65625l3.828125 0zm13.500702 5.671875l-2.390625 0l0 -1.421875q-0.59375 0.828125 -1.40625 1.234375q-0.796875 0.40625 -1.609375 0.40625q-1.671875 0 -2.859375 -1.34375q-1.1875 -1.34375 -1.1875 -3.75q0 -2.453125 1.15625 -3.734375q1.15625 -1.28125 2.921875 -1.28125q1.625 0 2.8125 1.34375l0 -4.812496l2.5625 0l0 13.359371zm-6.84375 -5.046875q0 1.546875 0.4375 2.234375q0.609375 1.015625 1.71875 1.015625q0.890625 0 1.5 -0.75q0.625 -0.765625 0.625 -2.25q0 -1.671875 -0.609375 -2.40625q-0.59375 -0.734375 -1.53125 -0.734375q-0.90625 0 -1.53125 0.734375q-0.609375 0.71875 -0.609375 2.15625zm9.849121 -2.0625l0 -2.5625l2.5625 0l0 2.5625l-2.5625 0zm0 7.109375l0 -2.5625l2.5625 0l0 2.5625l-2.5625 0z" fill-rule="nonzero"/><path fill="#000000" fill-opacity="0.0" d="m385.72604 59.340702l0 0l0 21.452862l0 0l0 -21.452862z" fill-rule="nonzero"/><path fill="#ffffff" d="m297.62354 80.70971l134.74768 0l0 22.399994l-134.74768 0l0 -22.399994z" fill-rule="nonzero"/><path fill="#000000" fill-opacity="0.0" d="m297.62354 81.7407l134.74768 0l0 21.452866l-134.74768 0l0 -21.452866z" fill-rule="nonzero"/><path fill="#ff0000" d="m301.38916 98.62971l-3.53125 -13.359375l1.8125 0l2.03125 8.765625q0.328125 1.375 0.5625 2.71875q0.5 -2.140625 0.59375 -2.46875l2.546875 -9.015625l2.125 0l1.921875 6.765625q0.71875 2.515625 1.03125 4.71875q0.265625 -1.265625 0.671875 -2.890625l2.09375 -8.59375l1.78125 0l-3.671875 13.359375l-1.703125 0l-2.8125 -10.171875q-0.359375 -1.28125 -0.421875 -1.5625q-0.203125 0.90625 -0.390625 1.5625l-2.828125 10.171875l-1.8125 0zm15.077423 -11.46875l0 -1.890625l1.640625 0l0 1.890625l-1.640625 0zm0 11.46875l0 -9.671875l1.640625 0l0 9.671875l-1.640625 0zm4.097931 0l0 -13.359375l1.640625 0l0 13.359375l-1.640625 0zm4.1448364 0l0 -13.359375l1.640625 0l0 13.359375l-1.640625 0zm11.15625 0l-2.96875 -9.671875l1.703125 0l1.53125 5.578125l0.578125 2.078125q0.046875 -0.15625 0.5 -2.0l1.546875 -5.65625l1.6875 0l1.4375 5.609375l0.484375 1.84375l0.5625 -1.859375l1.65625 -5.59375l1.59375 0l-3.03125 9.671875l-1.703125 0l-1.53125 -5.796875l-0.375 -1.640625l-1.953125 7.4375l-1.71875 0zm11.082306 -4.84375q0 -2.6875 1.484375 -3.96875q1.25 -1.078125 3.046875 -1.078125q2.0 0 3.265625 1.3125q1.265625 1.296875 1.265625 3.609375q0 1.859375 -0.5625 2.9375q-0.5625 1.0625 -1.640625 1.65625q-1.0625 0.59375 -2.328125 0.59375q-2.03125 0 -3.28125 -1.296875q-1.25 -1.3125 -1.25 -3.765625zm1.6875 0q0 1.859375 0.796875 2.796875q0.8125 0.921875 2.046875 0.921875q1.21875 0 2.03125 -0.921875q0.8125 -0.9375 0.8125 -2.84375q0 -1.796875 -0.8125 -2.71875q-0.8125 -0.921875 -2.03125 -0.921875q-1.234375 0 -2.046875 0.921875q-0.796875 0.90625 -0.796875 2.765625zm9.281982 4.84375l0 -9.671875l1.46875 0l0 1.46875q0.5625 -1.03125 1.03125 -1.359375q0.484375 -0.328125 1.0625 -0.328125q0.828125 0 1.6875 0.53125l-0.5625 1.515625q-0.609375 -0.359375 -1.203125 -0.359375q-0.546875 0 -0.96875 0.328125q-0.421875 0.328125 -0.609375 0.890625q-0.28125 0.875 -0.28125 1.921875l0 5.0625l-1.625 0zm6.228302 0l0 -13.359375l1.640625 0l0 7.625l3.890625 -3.9375l2.109375 0l-3.6875 3.59375l4.0625 6.078125l-2.015625 0l-3.203125 -4.953125l-1.15625 1.125l0 3.828125l-1.640625 0zm16.292664 0l-2.96875 -9.671875l1.703125 0l1.53125 5.578125l0.578125 2.078125q0.046875 -0.15625 0.5 -2.0l1.546875 -5.65625l1.6875 0l1.4375 5.609375l0.484375 1.84375l0.5625 -1.859375l1.65625 -5.59375l1.59375 0l-3.03125 9.671875l-1.703125 0l-1.53125 -5.796875l-0.375 -1.640625l-1.953125 7.4375l-1.71875 0zm11.691711 -11.46875l0 -1.890625l1.640625 0l0 1.890625l-1.640625 0zm0 11.46875l0 -9.671875l1.640625 0l0 9.671875l-1.640625 0zm7.722931 -1.46875l0.234375 1.453125q-0.6875 0.140625 -1.234375 0.140625q-0.890625 0 -1.390625 -0.28125q-0.484375 -0.28125 -0.6875 -0.734375q-0.203125 -0.46875 -0.203125 -1.9375l0 -5.578125l-1.203125 0l0 -1.265625l1.203125 0l0 -2.390625l1.625 -0.984375l0 3.375l1.65625 0l0 1.265625l-1.65625 0l0 5.671875q0 0.6875 0.078125 0.890625q0.09375 0.203125 0.28125 0.328125q0.203125 0.109375 0.578125 0.109375q0.265625 0 0.71875 -0.0625zm1.6051941 1.46875l0 -13.359375l1.640625 0l0 4.796875q1.140625 -1.328125 2.890625 -1.328125q1.078125 0 1.859375 0.421875q0.796875 0.421875 1.140625 1.171875q0.34375 0.75 0.34375 2.171875l0 6.125l-1.640625 0l0 -6.125q0 -1.234375 -0.53125 -1.796875q-0.53125 -0.5625 -1.515625 -0.5625q-0.71875 0 -1.359375 0.390625q-0.640625 0.375 -0.921875 1.015625q-0.265625 0.640625 -0.265625 1.78125l0 5.296875l-1.640625 0zm14.949646 -4.84375q0 -2.6875 1.484375 -3.96875q1.25 -1.078125 3.046875 -1.078125q2.0 0 3.265625 1.3125q1.265625 1.296875 1.265625 3.609375q0 1.859375 -0.5625 2.9375q-0.5625 1.0625 -1.640625 1.65625q-1.0625 0.59375 -2.328125 0.59375q-2.03125 0 -3.28125 -1.296875q-1.25 -1.3125 -1.25 -3.765625zm1.6875 0q0 1.859375 0.796875 2.796875q0.8125 0.921875 2.046875 0.921875q1.21875 0 2.03125 -0.921875q0.8125 -0.9375 0.8125 -2.84375q0 -1.796875 -0.8125 -2.71875q-0.8125 -0.921875 -2.03125 -0.921875q-1.234375 0 -2.046875 0.921875q-0.796875 0.90625 -0.796875 2.765625zm9.281952 4.84375l0 -9.671875l1.46875 0l0 1.46875q0.5625 -1.03125 1.03125 -1.359375q0.484375 -0.328125 1.0625 -0.328125q0.828125 0 1.6875 0.53125l-0.5625 1.515625q-0.609375 -0.359375 -1.203125 -0.359375q-0.546875 0 -0.96875 0.328125q-0.421875 0.328125 -0.609375 0.890625q-0.28125 0.875 -0.28125 1.921875l0 5.0625l-1.625 0z" fill-rule="nonzero"/><path fill="#000000" fill-opacity="0.0" d="m432.37122 81.7407l5.1832886 0l0 21.452866l-5.1832886 0l0 -21.452866z" fill-rule="nonzero"/><path fill="#ffffff" d="m293.4514 103.1097l143.09198 0l0 22.400002l-143.09198 0l0 -22.400002z" fill-rule="nonzero"/><path fill="#000000" fill-opacity="0.0" d="m293.4514 104.14069l143.09198 0l0 21.452866l-143.09198 0l0 -21.452866z" fill-rule="nonzero"/><path fill="#ff0000" d="m296.467 121.0297l-2.96875 -9.671875l1.703125 0l1.53125 5.578125l0.578125 2.078125q0.046875 -0.15625 0.5 -2.0l1.546875 -5.65625l1.6875 0l1.4375 5.609375l0.484375 1.84375l0.5625 -1.859375l1.65625 -5.59375l1.59375 0l-3.03125 9.671875l-1.703125 0l-1.53125 -5.796875l-0.375 -1.640625l-1.953125 7.4375l-1.71875 0zm11.691711 -11.46875l0 -1.890625l1.640625 0l0 1.890625l-1.640625 0zm0 11.46875l0 -9.671875l1.640625 0l0 9.671875l-1.640625 0zm7.722931 -1.46875l0.234375 1.453125q-0.6875 0.140625 -1.234375 0.140625q-0.890625 0 -1.390625 -0.28125q-0.484375 -0.28125 -0.6875 -0.734375q-0.203125 -0.46875 -0.203125 -1.9375l0 -5.578125l-1.203125 0l0 -1.265625l1.203125 0l0 -2.390625l1.625 -0.984375l0 3.375l1.65625 0l0 1.265625l-1.65625 0l0 5.671875q0 0.6875 0.078125 0.890625q0.09375 0.203125 0.28125 0.328125q0.203125 0.109375 0.578125 0.109375q0.265625 0 0.71875 -0.0625zm1.6051941 1.46875l0 -13.359375l1.640625 0l0 4.796875q1.140625 -1.328125 2.890625 -1.328125q1.078125 0 1.859375 0.421875q0.796875 0.421875 1.140625 1.171875q0.34375 0.75 0.34375 2.171875l0 6.125l-1.640625 0l0 -6.125q0 -1.234375 -0.53125 -1.796875q-0.53125 -0.5625 -1.515625 -0.5625q-0.71875 0 -1.359375 0.390625q-0.640625 0.375 -0.921875 1.015625q-0.265625 0.640625 -0.265625 1.78125l0 5.296875l-1.640625 0zm9.766327 -4.84375q0 -2.6875 1.484375 -3.96875q1.25 -1.078125 3.046875 -1.078125q2.0 0 3.265625 1.3125q1.265625 1.296875 1.265625 3.609375q0 1.859375 -0.5625 2.9375q-0.5625 1.0625 -1.640625 1.65625q-1.0625 0.59375 -2.328125 0.59375q-2.03125 0 -3.28125 -1.296875q-1.25 -1.3125 -1.25 -3.765625zm1.6875 0q0 1.859375 0.796875 2.796875q0.8125 0.921875 2.046875 0.921875q1.21875 0 2.03125 -0.921875q0.8125 -0.9375 0.8125 -2.84375q0 -1.796875 -0.8125 -2.71875q-0.8125 -0.921875 -2.03125 -0.921875q-1.234375 0 -2.046875 0.921875q-0.796875 0.90625 -0.796875 2.765625zm15.625732 4.84375l0 -1.421875q-1.125 1.640625 -3.0625 1.640625q-0.859375 0 -1.609375 -0.328125q-0.734375 -0.328125 -1.09375 -0.828125q-0.359375 -0.5 -0.5 -1.21875q-0.109375 -0.46875 -0.109375 -1.53125l0 -5.984375l1.640625 0l0 5.359375q0 1.28125 0.109375 1.734375q0.15625 0.640625 0.65625 1.015625q0.5 0.375 1.234375 0.375q0.734375 0 1.375 -0.375q0.65625 -0.390625 0.921875 -1.03125q0.265625 -0.65625 0.265625 -1.890625l0 -5.1875l1.640625 0l0 9.671875l-1.46875 0zm7.625702 -1.46875l0.234375 1.453125q-0.6875 0.140625 -1.234375 0.140625q-0.890625 0 -1.390625 -0.28125q-0.484375 -0.28125 -0.6875 -0.734375q-0.203125 -0.46875 -0.203125 -1.9375l0 -5.578125l-1.203125 0l0 -1.265625l1.203125 0l0 -2.390625l1.625 -0.984375l0 3.375l1.65625 0l0 1.265625l-1.65625 0l0 5.671875q0 0.6875 0.078125 0.890625q0.09375 0.203125 0.28125 0.328125q0.203125 0.109375 0.578125 0.109375q0.265625 0 0.71875 -0.0625zm6.9759827 1.46875l0 -13.359375l1.8125 0l7.015625 10.484375l0 -10.484375l1.6875 0l0 13.359375l-1.8125 0l-7.015625 -10.5l0 10.5l-1.6875 0zm19.613586 0l0 -1.421875q-1.125 1.640625 -3.0625 1.640625q-0.859375 0 -1.609375 -0.328125q-0.734375 -0.328125 -1.09375 -0.828125q-0.359375 -0.5 -0.5 -1.21875q-0.109375 -0.46875 -0.109375 -1.53125l0 -5.984375l1.640625 0l0 5.359375q0 1.28125 0.109375 1.734375q0.15625 0.640625 0.65625 1.015625q0.5 0.375 1.234375 0.375q0.734375 0 1.375 -0.375q0.65625 -0.390625 0.921875 -1.03125q0.265625 -0.65625 0.265625 -1.890625l0 -5.1875l1.640625 0l0 9.671875l-1.46875 0zm4.047577 0l0 -9.671875l1.46875 0l0 1.359375q0.453125 -0.71875 1.203125 -1.140625q0.765625 -0.4375 1.71875 -0.4375q1.078125 0 1.765625 0.453125q0.6875 0.4375 0.96875 1.234375q1.15625 -1.6875 2.984375 -1.6875q1.453125 0 2.21875 0.796875q0.78125 0.796875 0.78125 2.453125l0 6.640625l-1.640625 0l0 -6.09375q0 -0.984375 -0.15625 -1.40625q-0.15625 -0.4375 -0.578125 -0.703125q-0.421875 -0.265625 -0.984375 -0.265625q-1.015625 0 -1.6875 0.6875q-0.671875 0.671875 -0.671875 2.15625l0 5.625l-1.640625 0l0 -6.28125q0 -1.09375 -0.40625 -1.640625q-0.40625 -0.546875 -1.3125 -0.546875q-0.6875 0 -1.28125 0.359375q-0.59375 0.359375 -0.859375 1.0625q-0.25 0.703125 -0.25 2.03125l0 5.015625l-1.640625 0zm15.665802 0l0 -13.359375l1.78125 0l0 11.78125l6.5625 0l0 1.578125l-8.34375 0zm9.641357 -4.84375q0 -2.6875 1.484375 -3.96875q1.25 -1.078125 3.046875 -1.078125q2.0 0 3.265625 1.3125q1.265625 1.296875 1.265625 3.609375q0 1.859375 -0.5625 2.9375q-0.5625 1.0625 -1.640625 1.65625q-1.0625 0.59375 -2.328125 0.59375q-2.03125 0 -3.28125 -1.296875q-1.25 -1.3125 -1.25 -3.765625zm1.6875 0q0 1.859375 0.796875 2.796875q0.8125 0.921875 2.046875 0.921875q1.21875 0 2.03125 -0.921875q0.8125 -0.9375 0.8125 -2.84375q0 -1.796875 -0.8125 -2.71875q-0.8125 -0.921875 -2.03125 -0.921875q-1.234375 0 -2.046875 0.921875q-0.796875 0.90625 -0.796875 2.765625zm15.610077 1.296875l1.609375 0.21875q-0.265625 1.65625 -1.359375 2.609375q-1.078125 0.9375 -2.671875 0.9375q-1.984375 0 -3.1875 -1.296875q-1.203125 -1.296875 -1.203125 -3.71875q0 -1.578125 0.515625 -2.75q0.515625 -1.171875 1.578125 -1.75q1.0625 -0.59375 2.3125 -0.59375q1.578125 0 2.578125 0.796875q1.0 0.796875 1.28125 2.265625l-1.59375 0.234375q-0.234375 -0.96875 -0.8125 -1.453125q-0.578125 -0.5 -1.390625 -0.5q-1.234375 0 -2.015625 0.890625q-0.78125 0.890625 -0.78125 2.8125q0 1.953125 0.75 2.84375q0.75 0.875 1.953125 0.875q0.96875 0 1.609375 -0.59375q0.65625 -0.59375 0.828125 -1.828125zm3.015625 3.546875l0 -13.359375l1.640625 0l0 7.625l3.890625 -3.9375l2.109375 0l-3.6875 3.59375l4.0625 6.078125l-2.015625 0l-3.203125 -4.953125l-1.15625 1.125l0 3.828125l-1.640625 0z" fill-rule="nonzero"/><path fill="#000000" fill-opacity="0.0" d="m436.54337 104.14069l5.1832886 0l0 21.452866l-5.1832886 0l0 -21.452866z" fill-rule="nonzero"/><path fill="#ffffff" d="m316.41196 125.509705l97.17084 0l0 22.399994l-97.17084 0l0 -22.399994z" fill-rule="nonzero"/><path fill="#000000" fill-opacity="0.0" d="m316.41196 126.540695l97.17084 0l0 21.452866l-97.17084 0l0 -21.452866z" fill-rule="nonzero"/><path fill="#ff0000" d="m319.14633 143.4297l-1.515625 0l0 -13.359375l1.640625 0l0 4.765625q1.046875 -1.296875 2.65625 -1.296875q0.890625 0 1.6875 0.359375q0.796875 0.359375 1.3125 1.015625q0.515625 0.640625 0.796875 1.5625q0.296875 0.921875 0.296875 1.96875q0 2.484375 -1.234375 3.84375q-1.21875 1.359375 -2.953125 1.359375q-1.703125 0 -2.6875 -1.4375l0 1.21875zm-0.015625 -4.90625q0 1.734375 0.484375 2.515625q0.765625 1.265625 2.09375 1.265625q1.078125 0 1.859375 -0.9375q0.78125 -0.9375 0.78125 -2.78125q0 -1.890625 -0.75 -2.796875q-0.75 -0.90625 -1.828125 -0.90625q-1.0625 0 -1.859375 0.9375q-0.78125 0.9375 -0.78125 2.703125zm15.516357 1.796875l1.6875 0.203125q-0.40625 1.484375 -1.484375 2.3125q-1.078125 0.8125 -2.765625 0.8125q-2.125 0 -3.375 -1.296875q-1.234375 -1.3125 -1.234375 -3.671875q0 -2.453125 1.25 -3.796875q1.265625 -1.34375 3.265625 -1.34375q1.9375 0 3.15625 1.328125q1.234375 1.3125 1.234375 3.703125q0 0.15625 0 0.4375l-7.21875 0q0.09375 1.59375 0.90625 2.453125q0.8125 0.84375 2.015625 0.84375q0.90625 0 1.546875 -0.46875q0.640625 -0.484375 1.015625 -1.515625zm-5.390625 -2.65625l5.40625 0q-0.109375 -1.21875 -0.625 -1.828125q-0.78125 -0.953125 -2.03125 -0.953125q-1.125 0 -1.90625 0.765625q-0.765625 0.75 -0.84375 2.015625zm9.141327 -5.703125l0 -1.890625l1.640625 0l0 1.890625l-1.640625 0zm0 11.46875l0 -9.671875l1.640625 0l0 9.671875l-1.640625 0zm4.1448364 0l0 -9.671875l1.46875 0l0 1.375q1.0625 -1.59375 3.078125 -1.59375q0.875 0 1.609375 0.3125q0.734375 0.3125 1.09375 0.828125q0.375 0.5 0.515625 1.203125q0.09375 0.453125 0.09375 1.59375l0 5.953125l-1.640625 0l0 -5.890625q0 -1.0 -0.203125 -1.484375q-0.1875 -0.5 -0.671875 -0.796875q-0.484375 -0.296875 -1.140625 -0.296875q-1.046875 0 -1.8125 0.671875q-0.75 0.65625 -0.75 2.515625l0 5.28125l-1.640625 0zm10.063202 0.796875l1.59375 0.234375q0.109375 0.75 0.5625 1.078125q0.609375 0.453125 1.671875 0.453125q1.140625 0 1.75 -0.453125q0.625 -0.453125 0.84375 -1.265625q0.125 -0.5 0.109375 -2.109375q-1.0625 1.265625 -2.671875 1.265625q-2.0 0 -3.09375 -1.4375q-1.09375 -1.4375 -1.09375 -3.453125q0 -1.390625 0.5 -2.5625q0.515625 -1.171875 1.453125 -1.796875q0.953125 -0.640625 2.25 -0.640625q1.703125 0 2.8125 1.375l0 -1.15625l1.515625 0l0 8.359375q0 2.265625 -0.46875 3.203125q-0.453125 0.9375 -1.453125 1.484375q-0.984375 0.546875 -2.453125 0.546875q-1.71875 0 -2.796875 -0.78125q-1.0625 -0.765625 -1.03125 -2.34375zm1.359375 -5.8125q0 1.90625 0.75 2.78125q0.765625 0.875 1.90625 0.875q1.125 0 1.890625 -0.859375q0.765625 -0.875 0.765625 -2.734375q0 -1.78125 -0.796875 -2.671875q-0.78125 -0.90625 -1.890625 -0.90625q-1.09375 0 -1.859375 0.890625q-0.765625 0.875 -0.765625 2.625zm13.902771 0.171875q0 -2.6875 1.484375 -3.96875q1.25 -1.078125 3.046875 -1.078125q2.0 0 3.265625 1.3125q1.265625 1.296875 1.265625 3.609375q0 1.859375 -0.5625 2.9375q-0.5625 1.0625 -1.640625 1.65625q-1.0625 0.59375 -2.328125 0.59375q-2.03125 0 -3.28125 -1.296875q-1.25 -1.3125 -1.25 -3.765625zm1.6875 0q0 1.859375 0.796875 2.796875q0.8125 0.921875 2.046875 0.921875q1.21875 0 2.03125 -0.921875q0.8125 -0.9375 0.8125 -2.84375q0 -1.796875 -0.8125 -2.71875q-0.8125 -0.921875 -2.03125 -0.921875q-1.234375 0 -2.046875 0.921875q-0.796875 0.90625 -0.796875 2.765625zm9.297607 4.84375l0 -9.671875l1.46875 0l0 1.375q1.0625 -1.59375 3.078125 -1.59375q0.875 0 1.609375 0.3125q0.734375 0.3125 1.09375 0.828125q0.375 0.5 0.515625 1.203125q0.09375 0.453125 0.09375 1.59375l0 5.953125l-1.640625 0l0 -5.890625q0 -1.0 -0.203125 -1.484375q-0.1875 -0.5 -0.671875 -0.796875q-0.484375 -0.296875 -1.140625 -0.296875q-1.046875 0 -1.8125 0.671875q-0.75 0.65625 -0.75 2.515625l0 5.28125l-1.640625 0zm9.141327 0.234375l3.875 -13.8125l1.3125 0l-3.859375 13.8125l-1.328125 0zm5.808319 -5.078125q0 -2.6875 1.484375 -3.96875q1.25 -1.078125 3.046875 -1.078125q2.0 0 3.265625 1.3125q1.265625 1.296875 1.265625 3.609375q0 1.859375 -0.5625 2.9375q-0.5625 1.0625 -1.640625 1.65625q-1.0625 0.59375 -2.328125 0.59375q-2.03125 0 -3.28125 -1.296875q-1.25 -1.3125 -1.25 -3.765625zm1.6875 0q0 1.859375 0.796875 2.796875q0.8125 0.921875 2.046875 0.921875q1.21875 0 2.03125 -0.921875q0.8125 -0.9375 0.8125 -2.84375q0 -1.796875 -0.8125 -2.71875q-0.8125 -0.921875 -2.03125 -0.921875q-1.234375 0 -2.046875 0.921875q-0.796875 0.90625 -0.796875 2.765625zm9.688202 4.84375l0 -8.40625l-1.453125 0l0 -1.265625l1.453125 0l0 -1.03125q0 -0.96875 0.171875 -1.453125q0.234375 -0.640625 0.828125 -1.03125q0.59375 -0.390625 1.671875 -0.390625q0.6875 0 1.53125 0.15625l-0.25 1.4375q-0.5 -0.09375 -0.953125 -0.09375q-0.75 0 -1.0625 0.328125q-0.3125 0.3125 -0.3125 1.1875l0 0.890625l1.890625 0l0 1.265625l-1.890625 0l0 8.40625l-1.625 0zm4.8460693 0l0 -8.40625l-1.453125 0l0 -1.265625l1.453125 0l0 -1.03125q0 -0.96875 0.171875 -1.453125q0.234375 -0.640625 0.828125 -1.03125q0.59375 -0.390625 1.671875 -0.390625q0.6875 0 1.53125 0.15625l-0.25 1.4375q-0.5 -0.09375 -0.953125 -0.09375q-0.75 0 -1.0625 0.328125q-0.3125 0.3125 -0.3125 1.1875l0 0.890625l1.890625 0l0 1.265625l-1.890625 0l0 8.40625l-1.625 0z" fill-rule="nonzero"/><path fill="#000000" fill-opacity="0.0" d="m413.5828 126.540695l0 0l0 21.452866l0 0l0 -21.452866z" fill-rule="nonzero"/><path fill="#000000" d="m334.9315 170.3097l60.131775 0l0 22.399994l-60.131775 0l0 -22.399994z" fill-rule="nonzero"/><path fill="#000000" fill-opacity="0.0" d="m334.9315 171.34068l60.131775 0l0 21.452866l-60.131775 0l0 -21.452866z" fill-rule="nonzero"/><path fill="#6eff6e" d="m342.494 183.32344l0 -2.25l5.8125 0l0 5.3125q-0.84375 0.828125 -2.453125 1.453125q-1.609375 0.625 -3.25 0.625q-2.09375 0 -3.65625 -0.875q-1.5625 -0.890625 -2.34375 -2.515625q-0.78125 -1.640625 -0.78125 -3.5625q0 -2.09375 0.875 -3.703125q0.875 -1.625 2.5625 -2.5q1.28125 -0.65625 3.203125 -0.65625q2.484375 0 3.875 1.046875q1.40625 1.03125 1.796875 2.875l-2.671875 0.5q-0.28125 -0.984375 -1.0625 -1.546875q-0.78125 -0.578125 -1.9375 -0.578125q-1.78125 0 -2.828125 1.125q-1.03125 1.125 -1.03125 3.328125q0 2.375 1.046875 3.5625q1.0625 1.1875 2.78125 1.1875q0.84375 0 1.6875 -0.328125q0.859375 -0.328125 1.46875 -0.8125l0 -1.6875l-3.09375 0zm10.745789 4.90625l-2.5625 0l0 -9.671875l2.375 0l0 1.375q0.609375 -0.984375 1.09375 -1.28125q0.484375 -0.3125 1.109375 -0.3125q0.875 0 1.6875 0.484375l-0.796875 2.234375q-0.640625 -0.421875 -1.203125 -0.421875q-0.53125 0 -0.90625 0.296875q-0.375 0.296875 -0.59375 1.078125q-0.203125 0.765625 -0.203125 3.234375l0 2.984375zm10.400909 -3.078125l2.546875 0.421875q-0.484375 1.40625 -1.546875 2.140625q-1.0625 0.734375 -2.65625 0.734375q-2.515625 0 -3.734375 -1.65625q-0.953125 -1.3125 -0.953125 -3.328125q0 -2.40625 1.25 -3.765625q1.265625 -1.359375 3.1875 -1.359375q2.15625 0 3.40625 1.421875q1.25 1.421875 1.1875 4.375l-6.40625 0q0.03125 1.140625 0.609375 1.78125q0.59375 0.625 1.484375 0.625q0.59375 0 1.0 -0.328125q0.421875 -0.328125 0.625 -1.0625zm0.15625 -2.59375q-0.03125 -1.109375 -0.578125 -1.6875q-0.546875 -0.578125 -1.328125 -0.578125q-0.84375 0 -1.390625 0.609375q-0.546875 0.609375 -0.53125 1.65625l3.828125 0zm10.219452 2.59375l2.546875 0.421875q-0.484375 1.40625 -1.546875 2.140625q-1.0625 0.734375 -2.65625 0.734375q-2.515625 0 -3.734375 -1.65625q-0.953125 -1.3125 -0.953125 -3.328125q0 -2.40625 1.25 -3.765625q1.265625 -1.359375 3.1875 -1.359375q2.15625 0 3.40625 1.421875q1.25 1.421875 1.1875 4.375l-6.40625 0q0.03125 1.140625 0.609375 1.78125q0.59375 0.625 1.484375 0.625q0.59375 0 1.0 -0.328125q0.421875 -0.328125 0.625 -1.0625zm0.15625 -2.59375q-0.03125 -1.109375 -0.578125 -1.6875q-0.546875 -0.578125 -1.328125 -0.578125q-0.84375 0 -1.390625 0.609375q-0.546875 0.609375 -0.53125 1.65625l3.828125 0zm13.422607 5.671875l-2.5625 0l0 -4.9375q0 -1.5625 -0.171875 -2.015625q-0.15625 -0.46875 -0.53125 -0.71875q-0.359375 -0.265625 -0.875 -0.265625q-0.671875 0 -1.203125 0.375q-0.53125 0.359375 -0.734375 0.96875q-0.1875 0.59375 -0.1875 2.21875l0 4.375l-2.546875 0l0 -9.671875l2.375 0l0 1.421875q1.265625 -1.640625 3.1875 -1.640625q0.84375 0 1.546875 0.3125q0.703125 0.296875 1.0625 0.78125q0.359375 0.46875 0.5 1.078125q0.140625 0.59375 0.140625 1.703125l0 6.015625zm3.0834656 -7.109375l0 -2.5625l2.5625 0l0 2.5625l-2.5625 0zm0 7.109375l0 -2.5625l2.5625 0l0 2.5625l-2.5625 0z" fill-rule="nonzero"/><path fill="#000000" fill-opacity="0.0" d="m395.06326 171.34068l0 0l0 21.452866l0 0l0 -21.452866z" fill-rule="nonzero"/><path fill="#000000" d="m288.80554 192.70969l152.38367 0l0 22.399994l-152.38367 0l0 -22.399994z" fill-rule="nonzero"/><path fill="#000000" fill-opacity="0.0" d="m288.80554 193.74068l152.38367 0l0 21.452866l-152.38367 0l0 -21.452866z" fill-rule="nonzero"/><path fill="#6eff6e" d="m292.57117 210.62968l-3.53125 -13.359375l1.8125 0l2.03125 8.765625q0.328125 1.375 0.5625 2.71875q0.5 -2.140625 0.59375 -2.46875l2.546875 -9.015625l2.125 0l1.921875 6.765625q0.71875 2.515625 1.03125 4.71875q0.265625 -1.265625 0.671875 -2.890625l2.09375 -8.59375l1.78125 0l-3.671875 13.359375l-1.703125 0l-2.8125 -10.171875q-0.359375 -1.28125 -0.421875 -1.5625q-0.203125 0.90625 -0.390625 1.5625l-2.828125 10.171875l-1.8125 0zm15.077423 -11.46875l0 -1.890625l1.640625 0l0 1.890625l-1.640625 0zm0 11.46875l0 -9.671875l1.640625 0l0 9.671875l-1.640625 0zm4.097931 0l0 -13.359375l1.640625 0l0 13.359375l-1.640625 0zm4.1448364 0l0 -13.359375l1.640625 0l0 13.359375l-1.640625 0zm8.765625 -4.84375q0 -2.6875 1.484375 -3.96875q1.25 -1.078125 3.046875 -1.078125q2.0 0 3.265625 1.3125q1.265625 1.296875 1.265625 3.609375q0 1.859375 -0.5625 2.9375q-0.5625 1.0625 -1.640625 1.65625q-1.0625 0.59375 -2.328125 0.59375q-2.03125 0 -3.28125 -1.296875q-1.25 -1.3125 -1.25 -3.765625zm1.6875 0q0 1.859375 0.796875 2.796875q0.8125 0.921875 2.046875 0.921875q1.21875 0 2.03125 -0.921875q0.8125 -0.9375 0.8125 -2.84375q0 -1.796875 -0.8125 -2.71875q-0.8125 -0.921875 -2.03125 -0.921875q-1.234375 0 -2.046875 0.921875q-0.796875 0.90625 -0.796875 2.765625zm9.297577 4.84375l0 -9.671875l1.46875 0l0 1.375q1.0625 -1.59375 3.078125 -1.59375q0.875 0 1.609375 0.3125q0.734375 0.3125 1.09375 0.828125q0.375 0.5 0.515625 1.203125q0.09375 0.453125 0.09375 1.59375l0 5.953125l-1.640625 0l0 -5.890625q0 -1.0 -0.203125 -1.484375q-0.1875 -0.5 -0.671875 -0.796875q-0.484375 -0.296875 -1.140625 -0.296875q-1.046875 0 -1.8125 0.671875q-0.75 0.65625 -0.75 2.515625l0 5.28125l-1.640625 0zm10.328857 0l0 -13.359375l1.640625 0l0 13.359375l-1.640625 0zm4.113556 3.71875l-0.1875 -1.53125q0.546875 0.140625 0.9375 0.140625q0.546875 0 0.875 -0.1875q0.328125 -0.171875 0.546875 -0.5q0.15625 -0.25 0.5 -1.21875q0.046875 -0.140625 0.140625 -0.40625l-3.671875 -9.6875l1.765625 0l2.015625 5.59375q0.390625 1.078125 0.703125 2.25q0.28125 -1.125 0.671875 -2.203125l2.078125 -5.640625l1.640625 0l-3.6875 9.828125q-0.59375 1.609375 -0.921875 2.203125q-0.4375 0.8125 -1.0 1.1875q-0.5625 0.375 -1.34375 0.375q-0.484375 0 -1.0625 -0.203125zm16.37082 -3.71875l-2.96875 -9.671875l1.703125 0l1.53125 5.578125l0.578125 2.078125q0.046875 -0.15625 0.5 -2.0l1.546875 -5.65625l1.6875 0l1.4375 5.609375l0.484375 1.84375l0.5625 -1.859375l1.65625 -5.59375l1.59375 0l-3.03125 9.671875l-1.703125 0l-1.53125 -5.796875l-0.375 -1.640625l-1.953125 7.4375l-1.71875 0zm11.082306 -4.84375q0 -2.6875 1.484375 -3.96875q1.25 -1.078125 3.046875 -1.078125q2.0 0 3.265625 1.3125q1.265625 1.296875 1.265625 3.609375q0 1.859375 -0.5625 2.9375q-0.5625 1.0625 -1.640625 1.65625q-1.0625 0.59375 -2.328125 0.59375q-2.03125 0 -3.28125 -1.296875q-1.25 -1.3125 -1.25 -3.765625zm1.6875 0q0 1.859375 0.796875 2.796875q0.8125 0.921875 2.046875 0.921875q1.21875 0 2.03125 -0.921875q0.8125 -0.9375 0.8125 -2.84375q0 -1.796875 -0.8125 -2.71875q-0.8125 -0.921875 -2.03125 -0.921875q-1.234375 0 -2.046875 0.921875q-0.796875 0.90625 -0.796875 2.765625zm9.281982 4.84375l0 -9.671875l1.46875 0l0 1.46875q0.5625 -1.03125 1.03125 -1.359375q0.484375 -0.328125 1.0625 -0.328125q0.828125 0 1.6875 0.53125l-0.5625 1.515625q-0.609375 -0.359375 -1.203125 -0.359375q-0.546875 0 -0.96875 0.328125q-0.421875 0.328125 -0.609375 0.890625q-0.28125 0.875 -0.28125 1.921875l0 5.0625l-1.625 0zm6.228302 0l0 -13.359375l1.640625 0l0 7.625l3.890625 -3.9375l2.109375 0l-3.6875 3.59375l4.0625 6.078125l-2.015625 0l-3.203125 -4.953125l-1.15625 1.125l0 3.828125l-1.640625 0zm16.292664 0l-2.96875 -9.671875l1.703125 0l1.53125 5.578125l0.578125 2.078125q0.046875 -0.15625 0.5 -2.0l1.546875 -5.65625l1.6875 0l1.4375 5.609375l0.484375 1.84375l0.5625 -1.859375l1.65625 -5.59375l1.59375 0l-3.03125 9.671875l-1.703125 0l-1.53125 -5.796875l-0.375 -1.640625l-1.953125 7.4375l-1.71875 0zm11.691711 -11.46875l0 -1.890625l1.640625 0l0 1.890625l-1.640625 0zm0 11.46875l0 -9.671875l1.640625 0l0 9.671875l-1.640625 0zm7.722931 -1.46875l0.234375 1.453125q-0.6875 0.140625 -1.234375 0.140625q-0.890625 0 -1.390625 -0.28125q-0.484375 -0.28125 -0.6875 -0.734375q-0.203125 -0.46875 -0.203125 -1.9375l0 -5.578125l-1.203125 0l0 -1.265625l1.203125 0l0 -2.390625l1.625 -0.984375l0 3.375l1.65625 0l0 1.265625l-1.65625 0l0 5.671875q0 0.6875 0.078125 0.890625q0.09375 0.203125 0.28125 0.328125q0.203125 0.109375 0.578125 0.109375q0.265625 0 0.71875 -0.0625zm1.6051941 1.46875l0 -13.359375l1.640625 0l0 4.796875q1.140625 -1.328125 2.890625 -1.328125q1.078125 0 1.859375 0.421875q0.796875 0.421875 1.140625 1.171875q0.34375 0.75 0.34375 2.171875l0 6.125l-1.640625 0l0 -6.125q0 -1.234375 -0.53125 -1.796875q-0.53125 -0.5625 -1.515625 -0.5625q-0.71875 0 -1.359375 0.390625q-0.640625 0.375 -0.921875 1.015625q-0.265625 0.640625 -0.265625 1.78125l0 5.296875l-1.640625 0z" fill-rule="nonzero"/><path fill="#000000" fill-opacity="0.0" d="m441.1892 193.74068l5.1832886 0l0 21.452866l-5.1832886 0l0 -21.452866z" fill-rule="nonzero"/><path fill="#000000" d="m300.36102 215.10968l129.2727 0l0 22.399994l-129.2727 0l0 -22.399994z" fill-rule="nonzero"/><path fill="#000000" fill-opacity="0.0" d="m300.36102 216.14067l129.2727 0l0 21.452866l-129.2727 0l0 -21.452866z" fill-rule="nonzero"/><path fill="#6eff6e" d="m301.7829 233.02968l0 -13.359375l1.8125 0l7.015625 10.484375l0 -10.484375l1.6875 0l0 13.359375l-1.8125 0l-7.015625 -10.5l0 10.5l-1.6875 0zm19.613586 0l0 -1.421875q-1.125 1.640625 -3.0625 1.640625q-0.859375 0 -1.609375 -0.328125q-0.734375 -0.328125 -1.09375 -0.828125q-0.359375 -0.5 -0.5 -1.21875q-0.109375 -0.46875 -0.109375 -1.53125l0 -5.984375l1.640625 0l0 5.359375q0 1.28125 0.109375 1.734375q0.15625 0.640625 0.65625 1.015625q0.5 0.375 1.234375 0.375q0.734375 0 1.375 -0.375q0.65625 -0.390625 0.921875 -1.03125q0.265625 -0.65625 0.265625 -1.890625l0 -5.1875l1.640625 0l0 9.671875l-1.46875 0zm4.047577 0l0 -9.671875l1.46875 0l0 1.359375q0.453125 -0.71875 1.203125 -1.140625q0.765625 -0.4375 1.71875 -0.4375q1.078125 0 1.765625 0.453125q0.6875 0.4375 0.96875 1.234375q1.15625 -1.6875 2.984375 -1.6875q1.453125 0 2.21875 0.796875q0.78125 0.796875 0.78125 2.453125l0 6.640625l-1.640625 0l0 -6.09375q0 -0.984375 -0.15625 -1.40625q-0.15625 -0.4375 -0.578125 -0.703125q-0.421875 -0.265625 -0.984375 -0.265625q-1.015625 0 -1.6875 0.6875q-0.671875 0.671875 -0.671875 2.15625l0 5.625l-1.640625 0l0 -6.28125q0 -1.09375 -0.40625 -1.640625q-0.40625 -0.546875 -1.3125 -0.546875q-0.6875 0 -1.28125 0.359375q-0.59375 0.359375 -0.859375 1.0625q-0.25 0.703125 -0.25 2.03125l0 5.015625l-1.640625 0zm15.665802 0l0 -13.359375l1.78125 0l0 11.78125l6.5625 0l0 1.578125l-8.34375 0zm9.641357 -4.84375q0 -2.6875 1.484375 -3.96875q1.25 -1.078125 3.046875 -1.078125q2.0 0 3.265625 1.3125q1.265625 1.296875 1.265625 3.609375q0 1.859375 -0.5625 2.9375q-0.5625 1.0625 -1.640625 1.65625q-1.0625 0.59375 -2.328125 0.59375q-2.03125 0 -3.28125 -1.296875q-1.25 -1.3125 -1.25 -3.765625zm1.6875 0q0 1.859375 0.796875 2.796875q0.8125 0.921875 2.046875 0.921875q1.21875 0 2.03125 -0.921875q0.8125 -0.9375 0.8125 -2.84375q0 -1.796875 -0.8125 -2.71875q-0.8125 -0.921875 -2.03125 -0.921875q-1.234375 0 -2.046875 0.921875q-0.796875 0.90625 -0.796875 2.765625zm15.610077 1.296875l1.609375 0.21875q-0.265625 1.65625 -1.359375 2.609375q-1.078125 0.9375 -2.671875 0.9375q-1.984375 0 -3.1875 -1.296875q-1.203125 -1.296875 -1.203125 -3.71875q0 -1.578125 0.515625 -2.75q0.515625 -1.171875 1.578125 -1.75q1.0625 -0.59375 2.3125 -0.59375q1.578125 0 2.578125 0.796875q1.0 0.796875 1.28125 2.265625l-1.59375 0.234375q-0.234375 -0.96875 -0.8125 -1.453125q-0.578125 -0.5 -1.390625 -0.5q-1.234375 0 -2.015625 0.890625q-0.78125 0.890625 -0.78125 2.8125q0 1.953125 0.75 2.84375q0.75 0.875 1.953125 0.875q0.96875 0 1.609375 -0.59375q0.65625 -0.59375 0.828125 -1.828125zm3.015625 3.546875l0 -13.359375l1.640625 0l0 7.625l3.890625 -3.9375l2.109375 0l-3.6875 3.59375l4.0625 6.078125l-2.015625 0l-3.203125 -4.953125l-1.15625 1.125l0 3.828125l-1.640625 0zm13.902069 -4.84375q0 -2.6875 1.484375 -3.96875q1.25 -1.078125 3.046875 -1.078125q2.0 0 3.265625 1.3125q1.265625 1.296875 1.265625 3.609375q0 1.859375 -0.5625 2.9375q-0.5625 1.0625 -1.640625 1.65625q-1.0625 0.59375 -2.328125 0.59375q-2.03125 0 -3.28125 -1.296875q-1.25 -1.3125 -1.25 -3.765625zm1.6875 0q0 1.859375 0.796875 2.796875q0.8125 0.921875 2.046875 0.921875q1.21875 0 2.03125 -0.921875q0.8125 -0.9375 0.8125 -2.84375q0 -1.796875 -0.8125 -2.71875q-0.8125 -0.921875 -2.03125 -0.921875q-1.234375 0 -2.046875 0.921875q-0.796875 0.90625 -0.796875 2.765625zm9.688202 4.84375l0 -8.40625l-1.453125 0l0 -1.265625l1.453125 0l0 -1.03125q0 -0.96875 0.171875 -1.453125q0.234375 -0.640625 0.828125 -1.03125q0.59375 -0.390625 1.671875 -0.390625q0.6875 0 1.53125 0.15625l-0.25 1.4375q-0.5 -0.09375 -0.953125 -0.09375q-0.75 0 -1.0625 0.328125q-0.3125 0.3125 -0.3125 1.1875l0 0.890625l1.890625 0l0 1.265625l-1.890625 0l0 8.40625l-1.625 0zm4.8460693 0l0 -8.40625l-1.453125 0l0 -1.265625l1.453125 0l0 -1.03125q0 -0.96875 0.171875 -1.453125q0.234375 -0.640625 0.828125 -1.03125q0.59375 -0.390625 1.671875 -0.390625q0.6875 0 1.53125 0.15625l-0.25 1.4375q-0.5 -0.09375 -0.953125 -0.09375q-0.75 0 -1.0625 0.328125q-0.3125 0.3125 -0.3125 1.1875l0 0.890625l1.890625 0l0 1.265625l-1.890625 0l0 8.40625l-1.625 0zm9.319733 -2.890625l1.625 -0.25q0.125 0.96875 0.75 1.5q0.625 0.515625 1.75 0.515625q1.125 0 1.671875 -0.453125q0.546875 -0.46875 0.546875 -1.09375q0 -0.546875 -0.484375 -0.875q-0.328125 -0.21875 -1.671875 -0.546875q-1.8125 -0.46875 -2.515625 -0.796875q-0.6875 -0.328125 -1.046875 -0.90625q-0.359375 -0.59375 -0.359375 -1.3125q0 -0.640625 0.296875 -1.1875q0.296875 -0.5625 0.8125 -0.921875q0.375 -0.28125 1.03125 -0.46875q0.671875 -0.203125 1.421875 -0.203125q1.140625 0 2.0 0.328125q0.859375 0.328125 1.265625 0.890625q0.421875 0.5625 0.578125 1.5l-1.609375 0.21875q-0.109375 -0.75 -0.640625 -1.171875q-0.515625 -0.421875 -1.46875 -0.421875q-1.140625 0 -1.625 0.375q-0.46875 0.375 -0.46875 0.875q0 0.3125 0.1875 0.578125q0.203125 0.265625 0.640625 0.4375q0.234375 0.09375 1.4375 0.421875q1.75 0.453125 2.4375 0.75q0.6875 0.296875 1.078125 0.859375q0.390625 0.5625 0.390625 1.40625q0 0.828125 -0.484375 1.546875q-0.46875 0.71875 -1.375 1.125q-0.90625 0.390625 -2.046875 0.390625q-1.875 0 -2.875 -0.78125q-0.984375 -0.78125 -1.25 -2.328125zm9.375 -1.953125q0 -2.6875 1.484375 -3.96875q1.25 -1.078125 3.046875 -1.078125q2.0 0 3.265625 1.3125q1.265625 1.296875 1.265625 3.609375q0 1.859375 -0.5625 2.9375q-0.5625 1.0625 -1.640625 1.65625q-1.0625 0.59375 -2.328125 0.59375q-2.03125 0 -3.28125 -1.296875q-1.25 -1.3125 -1.25 -3.765625zm1.6875 0q0 1.859375 0.796875 2.796875q0.8125 0.921875 2.046875 0.921875q1.21875 0 2.03125 -0.921875q0.8125 -0.9375 0.8125 -2.84375q0 -1.796875 -0.8125 -2.71875q-0.8125 -0.921875 -2.03125 -0.921875q-1.234375 0 -2.046875 0.921875q-0.796875 0.90625 -0.796875 2.765625z" fill-rule="nonzero"/><path fill="#000000" fill-opacity="0.0" d="m429.63373 216.14067l5.1832886 0l0 21.452866l-5.1832886 0l0 -21.452866z" fill-rule="nonzero"/><path fill="#000000" d="m298.63013 237.50967l132.7345 0l0 22.399994l-132.7345 0l0 -22.399994z" fill-rule="nonzero"/><path fill="#000000" fill-opacity="0.0" d="m298.63013 238.54066l132.7345 0l0 21.452866l-132.7345 0l0 -21.452866z" fill-rule="nonzero"/><path fill="#6eff6e" d="m299.78638 259.14844l-0.1875 -1.53125q0.546875 0.140625 0.9375 0.140625q0.546875 0 0.875 -0.1875q0.328125 -0.171875 0.546875 -0.5q0.15625 -0.25 0.5 -1.2187653q0.046875 -0.140625 0.140625 -0.40625l-3.671875 -9.6875l1.765625 0l2.015625 5.59375q0.390625 1.078125 0.703125 2.25q0.28125 -1.125 0.671875 -2.203125l2.078125 -5.640625l1.640625 0l-3.6875 9.828125q-0.59375 1.6093903 -0.921875 2.2031403q-0.4375 0.8125 -1.0 1.1875q-0.5625 0.375 -1.34375 0.375q-0.484375 0 -1.0625 -0.203125zm8.796875 -8.562515q0 -2.6875 1.484375 -3.96875q1.25 -1.078125 3.046875 -1.078125q2.0 0 3.265625 1.3125q1.265625 1.296875 1.265625 3.609375q0 1.859375 -0.5625 2.9375q-0.5625 1.0625 -1.640625 1.65625q-1.0625 0.59375 -2.328125 0.59375q-2.03125 0 -3.28125 -1.296875q-1.25 -1.3125 -1.25 -3.765625zm1.6875 0q0 1.859375 0.796875 2.796875q0.8125 0.921875 2.046875 0.921875q1.21875 0 2.03125 -0.921875q0.8125 -0.9375 0.8125 -2.84375q0 -1.796875 -0.8125 -2.71875q-0.8125 -0.921875 -2.03125 -0.921875q-1.234375 0 -2.046875 0.921875q-0.796875 0.90625 -0.796875 2.765625zm15.625732 4.84375l0 -1.421875q-1.125 1.640625 -3.0625 1.640625q-0.859375 0 -1.609375 -0.328125q-0.734375 -0.328125 -1.09375 -0.828125q-0.359375 -0.5 -0.5 -1.21875q-0.109375 -0.46875 -0.109375 -1.53125l0 -5.984375l1.640625 0l0 5.359375q0 1.28125 0.109375 1.734375q0.15625 0.640625 0.65625 1.015625q0.5 0.375 1.234375 0.375q0.734375 0 1.375 -0.375q0.65625 -0.390625 0.921875 -1.03125q0.265625 -0.65625 0.265625 -1.890625l0 -5.1875l1.640625 0l0 9.671875l-1.46875 0zm15.543396 -3.546875l1.609375 0.21875q-0.265625 1.65625 -1.359375 2.609375q-1.078125 0.9375 -2.671875 0.9375q-1.984375 0 -3.1875 -1.296875q-1.203125 -1.296875 -1.203125 -3.71875q0 -1.578125 0.515625 -2.75q0.515625 -1.171875 1.578125 -1.75q1.0625 -0.59375 2.3125 -0.59375q1.578125 0 2.578125 0.796875q1.0 0.796875 1.28125 2.265625l-1.59375 0.234375q-0.234375 -0.96875 -0.8125 -1.453125q-0.578125 -0.5 -1.390625 -0.5q-1.234375 0 -2.015625 0.890625q-0.78125 0.890625 -0.78125 2.8125q0 1.953125 0.75 2.84375q0.75 0.875 1.953125 0.875q0.96875 0 1.609375 -0.59375q0.65625 -0.59375 0.828125 -1.828125zm9.328125 2.359375q-0.921875 0.765625 -1.765625 1.09375q-0.828125 0.3125 -1.796875 0.3125q-1.59375 0 -2.453125 -0.78125q-0.859375 -0.78125 -0.859375 -1.984375q0 -0.71875 0.328125 -1.296875q0.328125 -0.59375 0.84375 -0.9375q0.53125 -0.359375 1.1875 -0.546875q0.46875 -0.125 1.453125 -0.25q1.984375 -0.234375 2.921875 -0.5625q0.015625 -0.34375 0.015625 -0.421875q0 -1.0 -0.46875 -1.421875q-0.625 -0.546875 -1.875 -0.546875q-1.15625 0 -1.703125 0.40625q-0.546875 0.40625 -0.8125 1.421875l-1.609375 -0.21875q0.21875 -1.015625 0.71875 -1.640625q0.5 -0.640625 1.453125 -0.984375q0.953125 -0.34375 2.1875 -0.34375q1.25 0 2.015625 0.296875q0.78125 0.28125 1.140625 0.734375q0.375 0.4375 0.515625 1.109375q0.078125 0.421875 0.078125 1.515625l0 2.1875q0 2.28125 0.109375 2.890625q0.109375 0.59375 0.40625 1.15625l-1.703125 0q-0.265625 -0.515625 -0.328125 -1.1875zm-0.140625 -3.671875q-0.890625 0.375 -2.671875 0.625q-1.015625 0.140625 -1.4375 0.328125q-0.421875 0.1875 -0.65625 0.53125q-0.21875 0.34375 -0.21875 0.78125q0 0.65625 0.5 1.09375q0.5 0.4375 1.453125 0.4375q0.9375 0 1.671875 -0.40625q0.75 -0.421875 1.09375 -1.140625q0.265625 -0.5625 0.265625 -1.640625l0 -0.609375zm4.203827 4.859375l0 -9.671875l1.46875 0l0 1.375q1.0625 -1.59375 3.078125 -1.59375q0.875 0 1.609375 0.3125q0.734375 0.3125 1.09375 0.828125q0.375 0.5 0.515625 1.203125q0.09375 0.453125 0.09375 1.59375l0 5.953125l-1.640625 0l0 -5.890625q0 -1.0 -0.203125 -1.484375q-0.1875 -0.5 -0.671875 -0.796875q-0.484375 -0.296875 -1.140625 -0.296875q-1.046875 0 -1.8125 0.671875q-0.75 0.65625 -0.75 2.515625l0 5.28125l-1.640625 0zm14.902771 -2.890625l1.625 -0.25q0.125 0.96875 0.75 1.5q0.625 0.515625 1.75 0.515625q1.125 0 1.671875 -0.453125q0.546875 -0.46875 0.546875 -1.09375q0 -0.546875 -0.484375 -0.875q-0.328125 -0.21875 -1.671875 -0.546875q-1.8125 -0.46875 -2.515625 -0.796875q-0.6875 -0.328125 -1.046875 -0.90625q-0.359375 -0.59375 -0.359375 -1.3125q0 -0.640625 0.296875 -1.1875q0.296875 -0.5625 0.8125 -0.921875q0.375 -0.28125 1.03125 -0.46875q0.671875 -0.203125 1.421875 -0.203125q1.140625 0 2.0 0.328125q0.859375 0.328125 1.265625 0.890625q0.421875 0.5625 0.578125 1.5l-1.609375 0.21875q-0.109375 -0.75 -0.640625 -1.171875q-0.515625 -0.421875 -1.46875 -0.421875q-1.140625 0 -1.625 0.375q-0.46875 0.375 -0.46875 0.875q0 0.3125 0.1875 0.578125q0.203125 0.265625 0.640625 0.4375q0.234375 0.09375 1.4375 0.421875q1.75 0.453125 2.4375 0.75q0.6875 0.296875 1.078125 0.859375q0.390625 0.5625 0.390625 1.40625q0 0.828125 -0.484375 1.546875q-0.46875 0.71875 -1.375 1.125q-0.90625 0.390625 -2.046875 0.390625q-1.875 0 -2.875 -0.78125q-0.984375 -0.78125 -1.25 -2.328125zm13.5625 1.421875l0.234375 1.453125q-0.6875 0.140625 -1.234375 0.140625q-0.890625 0 -1.390625 -0.28125q-0.484375 -0.28125 -0.6875 -0.734375q-0.203125 -0.46875 -0.203125 -1.9375l0 -5.578125l-1.203125 0l0 -1.265625l1.203125 0l0 -2.390625l1.625 -0.984375l0 3.375l1.65625 0l0 1.265625l-1.65625 0l0 5.671875q0 0.6875 0.078125 0.890625q0.09375 0.203125 0.28125 0.328125q0.203125 0.109375 0.578125 0.109375q0.265625 0 0.71875 -0.0625zm1.6051941 -10.0l0 -1.890625l1.640625 0l0 1.890625l-1.640625 0zm0 11.46875l0 -9.671875l1.640625 0l0 9.671875l-1.640625 0zm4.097931 0l0 -13.359375l1.640625 0l0 13.359375l-1.640625 0zm4.1448364 0l0 -13.359375l1.640625 0l0 13.359375l-1.640625 0zm15.703125 0l0 -1.421875q-1.125 1.640625 -3.0625 1.640625q-0.859375 0 -1.609375 -0.328125q-0.734375 -0.328125 -1.09375 -0.828125q-0.359375 -0.5 -0.5 -1.21875q-0.109375 -0.46875 -0.109375 -1.53125l0 -5.984375l1.640625 0l0 5.359375q0 1.28125 0.109375 1.734375q0.15625 0.640625 0.65625 1.015625q0.5 0.375 1.234375 0.375q0.734375 0 1.375 -0.375q0.65625 -0.390625 0.921875 -1.03125q0.265625 -0.65625 0.265625 -1.890625l0 -5.1875l1.640625 0l0 9.671875l-1.46875 0zm3.391327 -2.890625l1.625 -0.25q0.125 0.96875 0.75 1.5q0.625 0.515625 1.75 0.515625q1.125 0 1.671875 -0.453125q0.546875 -0.46875 0.546875 -1.09375q0 -0.546875 -0.484375 -0.875q-0.328125 -0.21875 -1.671875 -0.546875q-1.8125 -0.46875 -2.515625 -0.796875q-0.6875 -0.328125 -1.046875 -0.90625q-0.359375 -0.59375 -0.359375 -1.3125q0 -0.640625 0.296875 -1.1875q0.296875 -0.5625 0.8125 -0.921875q0.375 -0.28125 1.03125 -0.46875q0.671875 -0.203125 1.421875 -0.203125q1.140625 0 2.0 0.328125q0.859375 0.328125 1.265625 0.890625q0.421875 0.5625 0.578125 1.5l-1.609375 0.21875q-0.109375 -0.75 -0.640625 -1.171875q-0.515625 -0.421875 -1.46875 -0.421875q-1.140625 0 -1.625 0.375q-0.46875 0.375 -0.46875 0.875q0 0.3125 0.1875 0.578125q0.203125 0.265625 0.640625 0.4375q0.234375 0.09375 1.4375 0.421875q1.75 0.453125 2.4375 0.75q0.6875 0.296875 1.078125 0.859375q0.390625 0.5625 0.390625 1.40625q0 0.828125 -0.484375 1.546875q-0.46875 0.71875 -1.375 1.125q-0.90625 0.390625 -2.046875 0.390625q-1.875 0 -2.875 -0.78125q-0.984375 -0.78125 -1.25 -2.328125zm16.609375 -0.21875l1.6875 0.203125q-0.40625 1.484375 -1.484375 2.3125q-1.078125 0.8125 -2.765625 0.8125q-2.125 0 -3.375 -1.296875q-1.234375 -1.3125 -1.234375 -3.671875q0 -2.453125 1.25 -3.796875q1.265625 -1.34375 3.265625 -1.34375q1.9375 0 3.15625 1.328125q1.234375 1.3125 1.234375 3.703125q0 0.15625 0 0.4375l-7.21875 0q0.09375 1.59375 0.90625 2.453125q0.8125 0.84375 2.015625 0.84375q0.90625 0 1.546875 -0.46875q0.640625 -0.484375 1.015625 -1.515625zm-5.390625 -2.65625l5.40625 0q-0.109375 -1.21875 -0.625 -1.828125q-0.78125 -0.953125 -2.03125 -0.953125q-1.125 0 -1.90625 0.765625q-0.765625 0.75 -0.84375 2.015625z" fill-rule="nonzero"/><path fill="#000000" fill-opacity="0.0" d="m431.36462 238.54066l5.1832886 0l0 21.452866l-5.1832886 0l0 -21.452866z" fill-rule="nonzero"/><path fill="#000000" d="m311.0646 259.90967l107.86554 0l0 22.399994l-107.86554 0l0 -22.399994z" fill-rule="nonzero"/><path fill="#000000" fill-opacity="0.0" d="m311.0646 260.94067l107.86554 0l0 21.45285l-107.86554 0l0 -21.45285z" fill-rule="nonzero"/><path fill="#6eff6e" d="m318.61148 276.64218q-0.921875 0.765625 -1.765625 1.09375q-0.828125 0.3125 -1.796875 0.3125q-1.59375 0 -2.453125 -0.78125q-0.859375 -0.78125 -0.859375 -1.984375q0 -0.71875 0.328125 -1.296875q0.328125 -0.59375 0.84375 -0.9375q0.53125 -0.359375 1.1875 -0.546875q0.46875 -0.125 1.453125 -0.25q1.984375 -0.234375 2.921875 -0.5625q0.015625 -0.34375 0.015625 -0.421875q0 -1.0 -0.46875 -1.421875q-0.625 -0.546875 -1.875 -0.546875q-1.15625 0 -1.703125 0.40625q-0.546875 0.40625 -0.8125 1.421875l-1.609375 -0.21875q0.21875 -1.015625 0.71875 -1.640625q0.5 -0.640625 1.453125 -0.984375q0.953125 -0.34375 2.1875 -0.34375q1.25 0 2.015625 0.296875q0.78125 0.28125 1.140625 0.734375q0.375 0.4375 0.515625 1.109375q0.078125 0.421875 0.078125 1.515625l0 2.1875q0 2.28125 0.109375 2.890625q0.109375 0.59375 0.40625 1.15625l-1.703125 0q-0.265625 -0.515625 -0.328125 -1.1875zm-0.140625 -3.671875q-0.890625 0.375 -2.671875 0.625q-1.015625 0.140625 -1.4375 0.328125q-0.421875 0.1875 -0.65625 0.53125q-0.21875 0.34375 -0.21875 0.78125q0 0.65625 0.5 1.09375q0.5 0.4375 1.453125 0.4375q0.9375 0 1.671875 -0.40625q0.75 -0.421875 1.09375 -1.140625q0.265625 -0.5625 0.265625 -1.640625l0 -0.609375zm3.547577 1.96875l1.625 -0.25q0.125 0.96875 0.75 1.5q0.625 0.515625 1.75 0.515625q1.125 0 1.671875 -0.453125q0.546875 -0.46875 0.546875 -1.09375q0 -0.546875 -0.484375 -0.875q-0.328125 -0.21875 -1.671875 -0.546875q-1.8125 -0.46875 -2.515625 -0.796875q-0.6875 -0.328125 -1.046875 -0.90625q-0.359375 -0.59375 -0.359375 -1.3125q0 -0.640625 0.296875 -1.1875q0.296875 -0.5625 0.8125 -0.921875q0.375 -0.28125 1.03125 -0.46875q0.671875 -0.203125 1.421875 -0.203125q1.140625 0 2.0 0.328125q0.859375 0.328125 1.265625 0.890625q0.421875 0.5625 0.578125 1.5l-1.609375 0.21875q-0.109375 -0.75 -0.640625 -1.171875q-0.515625 -0.421875 -1.46875 -0.421875q-1.140625 0 -1.625 0.375q-0.46875 0.375 -0.46875 0.875q0 0.3125 0.1875 0.578125q0.203125 0.265625 0.640625 0.4375q0.234375 0.09375 1.4375 0.421875q1.75 0.453125 2.4375 0.75q0.6875 0.296875 1.078125 0.859375q0.390625 0.5625 0.390625 1.40625q0 0.828125 -0.484375 1.546875q-0.46875 0.71875 -1.375 1.125q-0.90625 0.390625 -2.046875 0.390625q-1.875 0 -2.875 -0.78125q-0.984375 -0.78125 -1.25 -2.328125zm21.480194 1.703125q-0.921875 0.765625 -1.765625 1.09375q-0.828125 0.3125 -1.796875 0.3125q-1.59375 0 -2.453125 -0.78125q-0.859375 -0.78125 -0.859375 -1.984375q0 -0.71875 0.328125 -1.296875q0.328125 -0.59375 0.84375 -0.9375q0.53125 -0.359375 1.1875 -0.546875q0.46875 -0.125 1.453125 -0.25q1.984375 -0.234375 2.921875 -0.5625q0.015625 -0.34375 0.015625 -0.421875q0 -1.0 -0.46875 -1.421875q-0.625 -0.546875 -1.875 -0.546875q-1.15625 0 -1.703125 0.40625q-0.546875 0.40625 -0.8125 1.421875l-1.609375 -0.21875q0.21875 -1.015625 0.71875 -1.640625q0.5 -0.640625 1.453125 -0.984375q0.953125 -0.34375 2.1875 -0.34375q1.25 0 2.015625 0.296875q0.78125 0.28125 1.140625 0.734375q0.375 0.4375 0.515625 1.109375q0.078125 0.421875 0.078125 1.515625l0 2.1875q0 2.28125 0.109375 2.890625q0.109375 0.59375 0.40625 1.15625l-1.703125 0q-0.265625 -0.515625 -0.328125 -1.1875zm-0.140625 -3.671875q-0.890625 0.375 -2.671875 0.625q-1.015625 0.140625 -1.4375 0.328125q-0.421875 0.1875 -0.65625 0.53125q-0.21875 0.34375 -0.21875 0.78125q0 0.65625 0.5 1.09375q0.5 0.4375 1.453125 0.4375q0.9375 0 1.671875 -0.40625q0.75 -0.421875 1.09375 -1.140625q0.265625 -0.5625 0.265625 -1.640625l0 -0.609375zm9.387146 4.859375l0 -9.671875l1.46875 0l0 1.375q1.0625 -1.59375 3.078125 -1.59375q0.875 0 1.609375 0.3125q0.734375 0.3125 1.09375 0.828125q0.375 0.5 0.515625 1.203125q0.09375 0.453125 0.09375 1.59375l0 5.953125l-1.640625 0l0 -5.890625q0 -1.0 -0.203125 -1.484375q-0.1875 -0.5 -0.671875 -0.796875q-0.484375 -0.296875 -1.140625 -0.296875q-1.046875 0 -1.8125 0.671875q-0.75 0.65625 -0.75 2.515625l0 5.28125l-1.640625 0zm16.703827 0l0 -1.421875q-1.125 1.640625 -3.0625 1.640625q-0.859375 0 -1.609375 -0.328125q-0.734375 -0.328125 -1.09375 -0.828125q-0.359375 -0.5 -0.5 -1.21875q-0.109375 -0.46875 -0.109375 -1.53125l0 -5.984375l1.640625 0l0 5.359375q0 1.28125 0.109375 1.734375q0.15625 0.640625 0.65625 1.015625q0.5 0.375 1.234375 0.375q0.734375 0 1.375 -0.375q0.65625 -0.390625 0.921875 -1.03125q0.265625 -0.65625 0.265625 -1.890625l0 -5.1875l1.640625 0l0 9.671875l-1.46875 0zm4.0476074 0l0 -9.671875l1.46875 0l0 1.359375q0.453125 -0.71875 1.203125 -1.140625q0.765625 -0.4375 1.71875 -0.4375q1.078125 0 1.765625 0.453125q0.6875 0.4375 0.96875 1.234375q1.15625 -1.6875 2.984375 -1.6875q1.453125 0 2.21875 0.796875q0.78125 0.796875 0.78125 2.453125l0 6.640625l-1.640625 0l0 -6.09375q0 -0.984375 -0.15625 -1.40625q-0.15625 -0.4375 -0.578125 -0.703125q-0.421875 -0.265625 -0.984375 -0.265625q-1.015625 0 -1.6875 0.6875q-0.671875 0.671875 -0.671875 2.15625l0 5.625l-1.640625 0l0 -6.28125q0 -1.09375 -0.40625 -1.640625q-0.40625 -0.546875 -1.3125 -0.546875q-0.6875 0 -1.28125 0.359375q-0.59375 0.359375 -0.859375 1.0625q-0.25 0.703125 -0.25 2.03125l0 5.015625l-1.640625 0zm15.540802 3.703125l0 -13.375l1.484375 0l0 1.25q0.53125 -0.734375 1.1875 -1.09375q0.671875 -0.375 1.625 -0.375q1.234375 0 2.171875 0.640625q0.953125 0.625 1.4375 1.796875q0.484375 1.15625 0.484375 2.546875q0 1.484375 -0.53125 2.671875q-0.53125 1.1875 -1.546875 1.828125q-1.015625 0.625 -2.140625 0.625q-0.8125 0 -1.46875 -0.34375q-0.65625 -0.34375 -1.0625 -0.875l0 4.703125l-1.640625 0zm1.484375 -8.484375q0 1.859375 0.75 2.765625q0.765625 0.890625 1.828125 0.890625q1.09375 0 1.875 -0.921875q0.78125 -0.9375 0.78125 -2.875q0 -1.84375 -0.765625 -2.765625q-0.75 -0.921875 -1.8125 -0.921875q-1.046875 0 -1.859375 0.984375q-0.796875 0.96875 -0.796875 2.84375zm15.203827 3.59375q-0.921875 0.765625 -1.765625 1.09375q-0.828125 0.3125 -1.796875 0.3125q-1.59375 0 -2.453125 -0.78125q-0.859375 -0.78125 -0.859375 -1.984375q0 -0.71875 0.328125 -1.296875q0.328125 -0.59375 0.84375 -0.9375q0.53125 -0.359375 1.1875 -0.546875q0.46875 -0.125 1.453125 -0.25q1.984375 -0.234375 2.921875 -0.5625q0.015625 -0.34375 0.015625 -0.421875q0 -1.0 -0.46875 -1.421875q-0.625 -0.546875 -1.875 -0.546875q-1.15625 0 -1.703125 0.40625q-0.546875 0.40625 -0.8125 1.421875l-1.609375 -0.21875q0.21875 -1.015625 0.71875 -1.640625q0.5 -0.640625 1.453125 -0.984375q0.953125 -0.34375 2.1875 -0.34375q1.25 0 2.015625 0.296875q0.78125 0.28125 1.140625 0.734375q0.375 0.4375 0.515625 1.109375q0.078125 0.421875 0.078125 1.515625l0 2.1875q0 2.28125 0.109375 2.890625q0.109375 0.59375 0.40625 1.15625l-1.703125 0q-0.265625 -0.515625 -0.328125 -1.1875zm-0.140625 -3.671875q-0.890625 0.375 -2.671875 0.625q-1.015625 0.140625 -1.4375 0.328125q-0.421875 0.1875 -0.65625 0.53125q-0.21875 0.34375 -0.21875 0.78125q0 0.65625 0.5 1.09375q0.5 0.4375 1.453125 0.4375q0.9375 0 1.671875 -0.40625q0.75 -0.421875 1.09375 -1.140625q0.265625 -0.5625 0.265625 -1.640625l0 -0.609375zm10.469482 4.859375l0 -1.21875q-0.90625 1.4375 -2.703125 1.4375q-1.15625 0 -2.125 -0.640625q-0.96875 -0.640625 -1.5 -1.78125q-0.53125 -1.140625 -0.53125 -2.625q0 -1.453125 0.484375 -2.625q0.484375 -1.1875 1.4375 -1.8125q0.96875 -0.625 2.171875 -0.625q0.875 0 1.546875 0.375q0.6875 0.359375 1.109375 0.953125l0 -4.796875l1.640625 0l0 13.359375l-1.53125 0zm-5.171875 -4.828125q0 1.859375 0.78125 2.78125q0.78125 0.921875 1.84375 0.921875q1.078125 0 1.828125 -0.875q0.75 -0.890625 0.75 -2.6875q0 -1.984375 -0.765625 -2.90625q-0.765625 -0.9375 -1.890625 -0.9375q-1.078125 0 -1.8125 0.890625q-0.734375 0.890625 -0.734375 2.8125z" fill-rule="nonzero"/><path fill="#000000" fill-opacity="0.0" d="m418.93015 260.94067l0 0l0 21.45285l0 0l0 -21.45285z" fill-rule="nonzero"/></g></svg>